# Blender v2.66 (sub 1) OBJ File: 'mesh_Cylinder_32sides.blend'
# www.blender.org
mtllib mesh_Cylinder_32sides.mtl
o Cylinder_Cylinder.006
v 0.000000 -1.000000 0.000000
v 0.000000 1.000000 0.000000
v 0.000000 -1.000000 -1.000000
v 0.000000 1.000000 -1.000000
v 0.195090 -1.000000 -0.980785
v 0.195090 1.000000 -0.980785
v 0.382683 -1.000000 -0.923880
v 0.382683 1.000000 -0.923880
v 0.555570 -1.000000 -0.831470
v 0.555570 1.000000 -0.831470
v 0.707107 -1.000000 -0.707107
v 0.707107 1.000000 -0.707107
v 0.831470 -1.000000 -0.555570
v 0.831470 1.000000 -0.555570
v 0.923880 -1.000000 -0.382683
v 0.923880 1.000000 -0.382683
v 0.980785 -1.000000 -0.195090
v 0.980785 1.000000 -0.195090
v 1.000000 -1.000000 -0.000000
v 1.000000 1.000000 -0.000000
v 0.980785 -1.000000 0.195090
v 0.980785 1.000000 0.195090
v 0.923880 -1.000000 0.382683
v 0.923880 1.000000 0.382683
v 0.831470 -1.000000 0.555570
v 0.831470 1.000000 0.555570
v 0.707107 -1.000000 0.707107
v 0.707107 1.000000 0.707107
v 0.555570 -1.000000 0.831470
v 0.555570 1.000000 0.831470
v 0.382683 -1.000000 0.923880
v 0.382683 1.000000 0.923880
v 0.195090 -1.000000 0.980785
v 0.195090 1.000000 0.980785
v -0.000000 -1.000000 1.000000
v -0.000000 1.000000 1.000000
v -0.195091 -1.000000 0.980785
v -0.195091 1.000000 0.980785
v -0.382684 -1.000000 0.923879
v -0.382684 1.000000 0.923879
v -0.555571 -1.000000 0.831469
v -0.555571 1.000000 0.831469
v -0.707107 -1.000000 0.707106
v -0.707107 1.000000 0.707106
v -0.831470 -1.000000 0.555570
v -0.831470 1.000000 0.555570
v -0.923880 -1.000000 0.382683
v -0.923880 1.000000 0.382683
v -0.980785 -1.000000 0.195089
v -0.980785 1.000000 0.195089
v -1.000000 -1.000000 -0.000001
v -1.000000 1.000000 -0.000001
v -0.980785 -1.000000 -0.195091
v -0.980785 1.000000 -0.195091
v -0.923879 -1.000000 -0.382684
v -0.923879 1.000000 -0.382684
v -0.831469 -1.000000 -0.555571
v -0.831469 1.000000 -0.555571
v -0.707106 -1.000000 -0.707108
v -0.707106 1.000000 -0.707108
v -0.555569 -1.000000 -0.831470
v -0.555569 1.000000 -0.831470
v -0.382682 -1.000000 -0.923880
v -0.382682 1.000000 -0.923880
v -0.195089 -1.000000 -0.980786
v -0.195089 1.000000 -0.980786
vt 0.206527 0.206527
vt 0.023702 0.304248
vt 0.008150 0.266703
vt 0.206527 0.619580
vt 0.338038 0.779827
vt 0.304248 0.802404
vt 0.672515 0.415017
vt 0.671243 0.000414
vt 0.705032 0.000310
vt 0.000222 0.226846
vt 0.366774 0.751091
vt 0.706304 0.414914
vt 0.733768 0.000222
vt 0.000222 0.186207
vt 0.389351 0.717302
vt 0.998505 0.000398
vt 0.999777 0.415002
vt 0.965988 0.415105
vt 0.008150 0.146350
vt 0.404903 0.679757
vt 0.964716 0.000502
vt 0.928443 0.415221
vt 0.023702 0.108805
vt 0.412831 0.639899
vt 0.927171 0.000617
vt 0.888586 0.415343
vt 0.046279 0.075015
vt 0.412831 0.599261
vt 0.887314 0.000739
vt 0.847947 0.415468
vt 0.075015 0.046279
vt 0.404903 0.559403
vt 0.846675 0.000864
vt 0.808090 0.415590
vt 0.108805 0.023702
vt 0.389351 0.521858
vt 0.806818 0.000986
vt 0.770545 0.415705
vt 0.146350 0.008150
vt 0.366774 0.488068
vt 0.769273 0.001101
vt 0.736756 0.415809
vt 0.186207 0.000222
vt 0.338038 0.459333
vt 0.414547 0.831751
vt 0.413275 0.417148
vt 0.442011 0.417060
vt 0.226846 0.000222
vt 0.304248 0.436755
vt 0.443283 0.831663
vt 0.475800 0.416956
vt 0.266703 0.008150
vt 0.266703 0.421203
vt 0.477072 0.831560
vt 0.513345 0.416841
vt 0.304248 0.023702
vt 0.226846 0.413275
vt 0.514617 0.831444
vt 0.553203 0.416718
vt 0.338038 0.046279
vt 0.186207 0.413275
vt 0.554475 0.831322
vt 0.593841 0.416594
vt 0.366774 0.075015
vt 0.146350 0.421203
vt 0.595113 0.831197
vt 0.633698 0.416472
vt 0.389351 0.108805
vt 0.108805 0.436755
vt 0.634970 0.831075
vt 0.671243 0.416356
vt 0.404903 0.146350
vt 0.075015 0.459333
vt 0.672515 0.830960
vt 0.706305 0.830856
vt 0.412831 0.186207
vt 0.046279 0.488068
vt 0.998506 0.416253
vt 0.999778 0.830856
vt 0.969770 0.416341
vt 0.412831 0.226846
vt 0.023702 0.521858
vt 0.971042 0.830944
vt 0.935981 0.416445
vt 0.404903 0.266704
vt 0.008150 0.559403
vt 0.937253 0.831048
vt 0.898436 0.416560
vt 0.389351 0.304249
vt 0.000222 0.599261
vt 0.899708 0.831163
vt 0.858579 0.416682
vt 0.366774 0.338038
vt 0.000222 0.639899
vt 0.859851 0.831286
vt 0.817940 0.416807
vt 0.338038 0.366774
vt 0.008150 0.679757
vt 0.819212 0.831410
vt 0.778083 0.416929
vt 0.304248 0.389351
vt 0.023702 0.717302
vt 0.779355 0.831533
vt 0.740538 0.417044
vt 0.266703 0.404903
vt 0.046279 0.751091
vt 0.741810 0.831648
vt 0.706749 0.417148
vt 0.226846 0.412831
vt 0.075015 0.779827
vt 0.414547 0.415809
vt 0.413275 0.001205
vt 0.443283 0.415720
vt 0.186207 0.412831
vt 0.108805 0.802405
vt 0.442011 0.001117
vt 0.477072 0.415617
vt 0.146349 0.404903
vt 0.146350 0.817956
vt 0.475800 0.001013
vt 0.514617 0.415502
vt 0.108804 0.389351
vt 0.186208 0.825884
vt 0.513345 0.000898
vt 0.554474 0.415379
vt 0.075015 0.366774
vt 0.226846 0.825884
vt 0.553202 0.000776
vt 0.595113 0.415255
vt 0.046279 0.338038
vt 0.266704 0.817956
vt 0.593841 0.000651
vt 0.634970 0.415132
vt 0.633698 0.000529
vt 0.735040 0.414825
vt 0.735484 0.001205
vt 0.705033 0.416253
vt 0.708021 0.831751
vn -0.000000 -1.000000 0.000000
vn 0.000000 1.000000 -0.000000
vn 0.098017 0.000000 -0.995185
vn 0.290285 0.000000 -0.956940
vn 0.471397 0.000000 -0.881921
vn 0.634393 0.000000 -0.773010
vn 0.773010 0.000000 -0.634393
vn 0.881921 0.000000 -0.471397
vn 0.956940 0.000000 -0.290285
vn 0.995185 0.000000 -0.098017
vn 0.995185 0.000000 0.098017
vn 0.956940 0.000000 0.290285
vn 0.881921 0.000000 0.471396
vn 0.773010 0.000000 0.634393
vn 0.634393 0.000000 0.773010
vn 0.471397 0.000000 0.881921
vn 0.290284 0.000000 0.956940
vn 0.098017 0.000000 0.995185
vn -0.098018 0.000000 0.995185
vn -0.290285 0.000000 0.956940
vn -0.471397 0.000000 0.881921
vn -0.634394 0.000000 0.773010
vn -0.773011 0.000000 0.634393
vn -0.881922 0.000000 0.471396
vn -0.956941 0.000000 0.290284
vn -0.995185 0.000000 0.098016
vn -0.995185 -0.000000 -0.098018
vn -0.956940 -0.000000 -0.290286
vn -0.881921 -0.000000 -0.471398
vn -0.773010 -0.000000 -0.634394
vn -0.634392 -0.000000 -0.773011
vn -0.471395 -0.000000 -0.881922
vn -0.290283 -0.000000 -0.956941
vn -0.098017 -0.000000 -0.995185
usemtl None
s off
f 1/1/1 3/2/1 5/3/1
f 2/4/2 6/5/2 4/6/2
f 3/7/3 4/8/3 6/9/3
f 1/1/1 5/3/1 7/10/1
f 2/4/2 8/11/2 6/5/2
f 5/12/4 6/9/4 8/13/4
f 1/1/1 7/10/1 9/14/1
f 2/4/2 10/15/2 8/11/2
f 7/16/5 8/17/5 10/18/5
f 1/1/1 9/14/1 11/19/1
f 2/4/2 12/20/2 10/15/2
f 9/21/6 10/18/6 12/22/6
f 1/1/1 11/19/1 13/23/1
f 2/4/2 14/24/2 12/20/2
f 11/25/7 12/22/7 14/26/7
f 1/1/1 13/23/1 15/27/1
f 2/4/2 16/28/2 14/24/2
f 13/29/8 14/26/8 16/30/8
f 1/1/1 15/27/1 17/31/1
f 2/4/2 18/32/2 16/28/2
f 15/33/9 16/30/9 18/34/9
f 1/1/1 17/31/1 19/35/1
f 2/4/2 20/36/2 18/32/2
f 17/37/10 18/34/10 20/38/10
f 1/1/1 19/35/1 21/39/1
f 2/4/2 22/40/2 20/36/2
f 19/41/11 20/38/11 22/42/11
f 1/1/1 21/39/1 23/43/1
f 2/4/2 24/44/2 22/40/2
f 21/45/12 22/46/12 24/47/12
f 1/1/1 23/43/1 25/48/1
f 2/4/2 26/49/2 24/44/2
f 23/50/13 24/47/13 26/51/13
f 1/1/1 25/48/1 27/52/1
f 2/4/2 28/53/2 26/49/2
f 25/54/14 26/51/14 28/55/14
f 1/1/1 27/52/1 29/56/1
f 2/4/2 30/57/2 28/53/2
f 27/58/15 28/55/15 30/59/15
f 1/1/1 29/56/1 31/60/1
f 2/4/2 32/61/2 30/57/2
f 29/62/16 30/59/16 32/63/16
f 1/1/1 31/60/1 33/64/1
f 2/4/2 34/65/2 32/61/2
f 31/66/17 32/63/17 34/67/17
f 1/1/1 33/64/1 35/68/1
f 2/4/2 36/69/2 34/65/2
f 33/70/18 34/67/18 36/71/18
f 1/1/1 35/68/1 37/72/1
f 2/4/2 38/73/2 36/69/2
f 35/74/19 36/71/19 37/75/19
f 1/1/1 37/72/1 39/76/1
f 2/4/2 40/77/2 38/73/2
f 37/78/20 38/79/20 39/80/20
f 1/1/1 39/76/1 41/81/1
f 2/4/2 42/82/2 40/77/2
f 39/80/21 40/83/21 41/84/21
f 1/1/1 41/81/1 43/85/1
f 2/4/2 44/86/2 42/82/2
f 41/84/22 42/87/22 43/88/22
f 1/1/1 43/85/1 45/89/1
f 2/4/2 46/90/2 44/86/2
f 43/88/23 44/91/23 45/92/23
f 1/1/1 45/89/1 47/93/1
f 2/4/2 48/94/2 46/90/2
f 45/92/24 46/95/24 47/96/24
f 1/1/1 47/93/1 49/97/1
f 2/4/2 50/98/2 48/94/2
f 47/96/25 48/99/25 49/100/25
f 1/1/1 49/97/1 51/101/1
f 2/4/2 52/102/2 50/98/2
f 49/100/26 50/103/26 51/104/26
f 1/1/1 51/101/1 53/105/1
f 2/4/2 54/106/2 52/102/2
f 51/104/27 52/107/27 53/108/27
f 1/1/1 53/105/1 55/109/1
f 2/4/2 56/110/2 54/106/2
f 53/111/28 54/112/28 55/113/28
f 1/1/1 55/109/1 57/114/1
f 2/4/2 58/115/2 56/110/2
f 55/113/29 56/116/29 57/117/29
f 1/1/1 57/114/1 59/118/1
f 2/4/2 60/119/2 58/115/2
f 57/117/30 58/120/30 59/121/30
f 1/1/1 59/118/1 61/122/1
f 2/4/2 62/123/2 60/119/2
f 59/121/31 60/124/31 61/125/31
f 1/1/1 61/122/1 63/126/1
f 2/4/2 64/127/2 62/123/2
f 61/125/32 62/128/32 63/129/32
f 1/1/1 63/126/1 65/130/1
f 2/4/2 66/131/2 64/127/2
f 63/129/33 64/132/33 65/133/33
f 1/1/1 65/130/1 3/2/1
f 2/4/2 4/6/2 66/131/2
f 65/133/34 66/134/34 3/7/34
f 5/12/3 3/7/3 6/9/3
f 7/135/4 5/12/4 8/13/4
f 9/21/5 7/16/5 10/18/5
f 11/25/6 9/21/6 12/22/6
f 13/29/7 11/25/7 14/26/7
f 15/33/8 13/29/8 16/30/8
f 17/37/9 15/33/9 18/34/9
f 19/41/10 17/37/10 20/38/10
f 21/136/11 19/41/11 22/42/11
f 23/50/12 21/45/12 24/47/12
f 25/54/13 23/50/13 26/51/13
f 27/58/14 25/54/14 28/55/14
f 29/62/15 27/58/15 30/59/15
f 31/66/16 29/62/16 32/63/16
f 33/70/17 31/66/17 34/67/17
f 35/74/18 33/70/18 36/71/18
f 36/71/19 38/137/19 37/75/19
f 38/79/20 40/83/20 39/80/20
f 40/83/21 42/87/21 41/84/21
f 42/87/22 44/91/22 43/88/22
f 44/91/23 46/95/23 45/92/23
f 46/95/24 48/99/24 47/96/24
f 48/99/25 50/103/25 49/100/25
f 50/103/26 52/107/26 51/104/26
f 52/107/27 54/138/27 53/108/27
f 54/112/28 56/116/28 55/113/28
f 56/116/29 58/120/29 57/117/29
f 58/120/30 60/124/30 59/121/30
f 60/124/31 62/128/31 61/125/31
f 62/128/32 64/132/32 63/129/32
f 64/132/33 66/134/33 65/133/33
f 66/134/34 4/8/34 3/7/34
