# Generated for the VR Showcase
mtllib Arrow.mtl
o Polymer
usemtl Polymer
v -0.00300 0.00000 -0.00520
vt 0.48961 0.50000
v 0.00600 0.00000 0.00000
vt 0.50000 0.50000
v 0.00300 0.00000 -0.00520
vt 0.48961 0.50000
vn 0.00000 1.00000 0.00000
f 1/1/1 2/2/1 3/3/1
v -0.00300 0.00000 -0.00520
vt 0.48961 0.50000
v 0.00300 0.00000 0.00520
vt 0.51039 0.50000
v 0.00600 0.00000 0.00000
vt 0.50000 0.50000
vn 0.00000 1.00000 0.00000
f 4/4/2 5/5/2 6/6/2
v -0.00300 0.00000 -0.00520
vt 0.48961 0.50000
v -0.00600 0.00000 0.00000
vt 0.50000 0.50000
v -0.00300 0.00000 0.00520
vt 0.51039 0.50000
vn 0.00000 1.00000 0.00000
f 7/7/3 8/8/3 9/9/3
v -0.00300 0.00000 -0.00520
vt 0.48961 0.50000
v -0.00300 0.00000 0.00520
vt 0.51039 0.50000
v 0.00300 0.00000 0.00520
vt 0.51039 0.50000
vn 0.00000 1.00000 0.00000
f 10/10/4 11/11/4 12/12/4
v -0.00200 -0.01200 0.00346
vt 0.50693 0.47600
v -0.00300 0.00000 0.00520
vt 0.51039 0.50000
v -0.00600 0.00000 0.00000
vt 0.50000 0.50000
vn -0.85714 -0.14286 0.49487
f 13/13/5 14/14/5 15/15/5
v -0.00200 -0.01200 0.00346
vt 0.50693 0.47600
v -0.00600 0.00000 0.00000
vt 0.50000 0.50000
v -0.00400 -0.01200 0.00000
vt 0.50000 0.47600
vn -0.85714 -0.14286 0.49487
f 16/16/6 17/17/6 18/18/6
v -0.00200 -0.01200 0.00346
vt 0.50693 0.47600
v 0.00300 0.00000 0.00520
vt 0.51039 0.50000
v -0.00300 0.00000 0.00520
vt 0.51039 0.50000
vn -0.00000 -0.14286 0.98974
f 19/19/7 20/20/7 21/21/7
v -0.00200 -0.01200 0.00346
vt 0.50693 0.47600
v 0.00200 -0.01200 0.00346
vt 0.50693 0.47600
v 0.00300 0.00000 0.00520
vt 0.51039 0.50000
vn -0.00000 -0.14286 0.98974
f 22/22/8 23/23/8 24/24/8
v -0.00200 -0.01200 -0.00346
vt 0.49307 0.47600
v -0.00600 0.00000 0.00000
vt 0.50000 0.50000
v -0.00300 0.00000 -0.00520
vt 0.48961 0.50000
vn -0.85714 -0.14286 -0.49487
f 25/25/9 26/26/9 27/27/9
v -0.00200 -0.01200 -0.00346
vt 0.49307 0.47600
v -0.00400 -0.01200 0.00000
vt 0.50000 0.47600
v -0.00600 0.00000 0.00000
vt 0.50000 0.50000
vn -0.85714 -0.14286 -0.49487
f 28/28/10 29/29/10 30/30/10
v -0.00200 -0.01200 -0.00346
vt 0.49307 0.47600
v -0.00300 0.00000 -0.00520
vt 0.48961 0.50000
v 0.00300 0.00000 -0.00520
vt 0.48961 0.50000
vn 0.00000 -0.14286 -0.98974
f 31/31/11 32/32/11 33/33/11
v -0.00200 -0.01200 -0.00346
vt 0.49307 0.47600
v 0.00300 0.00000 -0.00520
vt 0.48961 0.50000
v 0.00200 -0.01200 -0.00346
vt 0.49307 0.47600
vn 0.00000 -0.14286 -0.98974
f 34/34/12 35/35/12 36/36/12
v 0.00400 -0.01200 0.00000
vt 0.50000 0.47600
v -0.00400 -0.01200 0.00000
vt 0.50000 0.47600
v -0.00200 -0.01200 -0.00346
vt 0.49307 0.47600
vn -0.00000 -1.00000 0.00000
f 37/37/13 38/38/13 39/39/13
v 0.00400 -0.01200 0.00000
vt 0.50000 0.47600
v -0.00200 -0.01200 0.00346
vt 0.50693 0.47600
v -0.00400 -0.01200 0.00000
vt 0.50000 0.47600
vn -0.00000 -1.00000 0.00000
f 40/40/14 41/41/14 42/42/14
v 0.00400 -0.01200 0.00000
vt 0.50000 0.47600
v 0.00200 -0.01200 0.00346
vt 0.50693 0.47600
v -0.00200 -0.01200 0.00346
vt 0.50693 0.47600
vn -0.00000 -1.00000 0.00000
f 43/43/15 44/44/15 45/45/15
v 0.00400 -0.01200 0.00000
vt 0.50000 0.47600
v -0.00200 -0.01200 -0.00346
vt 0.49307 0.47600
v 0.00200 -0.01200 -0.00346
vt 0.49307 0.47600
vn -0.00000 -1.00000 0.00000
f 46/46/16 47/47/16 48/48/16
v 0.00400 -0.01200 0.00000
vt 0.50000 0.47600
v 0.00600 0.00000 0.00000
vt 0.50000 0.50000
v 0.00300 0.00000 0.00520
vt 0.51039 0.50000
vn 0.85714 -0.14286 0.49487
f 49/49/17 50/50/17 51/51/17
v 0.00400 -0.01200 0.00000
vt 0.50000 0.47600
v 0.00300 0.00000 0.00520
vt 0.51039 0.50000
v 0.00200 -0.01200 0.00346
vt 0.50693 0.47600
vn 0.85714 -0.14286 0.49487
f 52/52/18 53/53/18 54/54/18
v 0.00400 -0.01200 0.00000
vt 0.50000 0.47600
v 0.00300 0.00000 -0.00520
vt 0.48961 0.50000
v 0.00600 0.00000 0.00000
vt 0.50000 0.50000
vn 0.85714 -0.14286 -0.49487
f 55/55/19 56/56/19 57/57/19
v 0.00400 -0.01200 0.00000
vt 0.50000 0.47600
v 0.00200 -0.01200 -0.00346
vt 0.49307 0.47600
v 0.00300 0.00000 -0.00520
vt 0.48961 0.50000
vn 0.85714 -0.14286 -0.49487
f 58/58/20 59/59/20 60/60/20
v -0.00300 0.00000 -0.00520
vt 0.48961 0.50000
v 0.00300 0.00000 -0.00520
vt 0.48961 0.50000
v 0.00600 0.00000 0.00000
vt 0.50000 0.50000
vn -0.00000 -1.00000 -0.00000
f 61/61/21 62/62/21 63/63/21
v -0.00300 0.00000 -0.00520
vt 0.48961 0.50000
v 0.00600 0.00000 0.00000
vt 0.50000 0.50000
v 0.00300 0.00000 0.00520
vt 0.51039 0.50000
vn -0.00000 -1.00000 -0.00000
f 64/64/22 65/65/22 66/66/22
v -0.00300 0.00000 -0.00520
vt 0.48961 0.50000
v -0.00300 0.00000 0.00520
vt 0.51039 0.50000
v -0.00600 0.00000 0.00000
vt 0.50000 0.50000
vn -0.00000 -1.00000 -0.00000
f 67/67/23 68/68/23 69/69/23
v -0.00300 0.00000 -0.00520
vt 0.48961 0.50000
v 0.00300 0.00000 0.00520
vt 0.51039 0.50000
v -0.00300 0.00000 0.00520
vt 0.51039 0.50000
vn -0.00000 -1.00000 -0.00000
f 70/70/24 71/71/24 72/72/24
v -0.00250 0.01200 0.00433
vt 0.50866 0.52400
v -0.00600 0.00000 0.00000
vt 0.50000 0.50000
v -0.00300 0.00000 0.00520
vt 0.51039 0.50000
vn -0.86378 0.07198 0.49870
f 73/73/25 74/74/25 75/75/25
v -0.00250 0.01200 0.00433
vt 0.50866 0.52400
v -0.00500 0.01200 0.00000
vt 0.50000 0.52400
v -0.00600 0.00000 0.00000
vt 0.50000 0.50000
vn -0.86378 0.07198 0.49870
f 76/76/26 77/77/26 78/78/26
v -0.00250 0.01200 0.00433
vt 0.50866 0.52400
v -0.00300 0.00000 0.00520
vt 0.51039 0.50000
v 0.00300 0.00000 0.00520
vt 0.51039 0.50000
vn -0.00000 0.07198 0.99741
f 79/79/27 80/80/27 81/81/27
v -0.00250 0.01200 0.00433
vt 0.50866 0.52400
v 0.00300 0.00000 0.00520
vt 0.51039 0.50000
v 0.00250 0.01200 0.00433
vt 0.50866 0.52400
vn -0.00000 0.07198 0.99741
f 82/82/28 83/83/28 84/84/28
v -0.00250 0.01200 -0.00433
vt 0.49134 0.52400
v -0.00300 0.00000 -0.00520
vt 0.48961 0.50000
v -0.00600 0.00000 0.00000
vt 0.50000 0.50000
vn -0.86378 0.07198 -0.49870
f 85/85/29 86/86/29 87/87/29
v -0.00250 0.01200 -0.00433
vt 0.49134 0.52400
v -0.00600 0.00000 0.00000
vt 0.50000 0.50000
v -0.00500 0.01200 0.00000
vt 0.50000 0.52400
vn -0.86378 0.07198 -0.49870
f 88/88/30 89/89/30 90/90/30
v -0.00250 0.01200 -0.00433
vt 0.49134 0.52400
v 0.00300 0.00000 -0.00520
vt 0.48961 0.50000
v -0.00300 0.00000 -0.00520
vt 0.48961 0.50000
vn 0.00000 0.07198 -0.99741
f 91/91/31 92/92/31 93/93/31
v -0.00250 0.01200 -0.00433
vt 0.49134 0.52400
v 0.00250 0.01200 -0.00433
vt 0.49134 0.52400
v 0.00300 0.00000 -0.00520
vt 0.48961 0.50000
vn 0.00000 0.07198 -0.99741
f 94/94/32 95/95/32 96/96/32
v 0.00500 0.01200 0.00000
vt 0.50000 0.52400
v -0.00250 0.01200 -0.00433
vt 0.49134 0.52400
v -0.00500 0.01200 0.00000
vt 0.50000 0.52400
vn 0.00000 1.00000 -0.00000
f 97/97/33 98/98/33 99/99/33
v 0.00500 0.01200 0.00000
vt 0.50000 0.52400
v -0.00500 0.01200 0.00000
vt 0.50000 0.52400
v -0.00250 0.01200 0.00433
vt 0.50866 0.52400
vn 0.00000 1.00000 -0.00000
f 100/100/34 101/101/34 102/102/34
v 0.00500 0.01200 0.00000
vt 0.50000 0.52400
v -0.00250 0.01200 0.00433
vt 0.50866 0.52400
v 0.00250 0.01200 0.00433
vt 0.50866 0.52400
vn 0.00000 1.00000 -0.00000
f 103/103/35 104/104/35 105/105/35
v 0.00500 0.01200 0.00000
vt 0.50000 0.52400
v 0.00250 0.01200 -0.00433
vt 0.49134 0.52400
v -0.00250 0.01200 -0.00433
vt 0.49134 0.52400
vn 0.00000 1.00000 -0.00000
f 106/106/36 107/107/36 108/108/36
v 0.00500 0.01200 0.00000
vt 0.50000 0.52400
v 0.00300 0.00000 0.00520
vt 0.51039 0.50000
v 0.00600 0.00000 0.00000
vt 0.50000 0.50000
vn 0.86378 0.07198 0.49870
f 109/109/37 110/110/37 111/111/37
v 0.00500 0.01200 0.00000
vt 0.50000 0.52400
v 0.00250 0.01200 0.00433
vt 0.50866 0.52400
v 0.00300 0.00000 0.00520
vt 0.51039 0.50000
vn 0.86378 0.07198 0.49870
f 112/112/38 113/113/38 114/114/38
v 0.00500 0.01200 0.00000
vt 0.50000 0.52400
v 0.00600 0.00000 0.00000
vt 0.50000 0.50000
v 0.00300 0.00000 -0.00520
vt 0.48961 0.50000
vn 0.86378 0.07198 -0.49870
f 115/115/39 116/116/39 117/117/39
v 0.00500 0.01200 0.00000
vt 0.50000 0.52400
v 0.00300 0.00000 -0.00520
vt 0.48961 0.50000
v 0.00250 0.01200 -0.00433
vt 0.49134 0.52400
vn 0.86378 0.07198 -0.49870
f 118/118/40 119/119/40 120/120/40
o Ash
usemtl Ash
v -0.00225 0.70000 -0.00390
vt 0.49221 1.90000
v -0.00225 0.01200 -0.00390
vt 0.49221 0.52400
v -0.00450 0.01200 0.00000
vt 0.50000 0.52400
vn -0.86603 -0.00000 -0.50000
f 121/121/41 122/122/41 123/123/41
v -0.00225 0.70000 -0.00390
vt 0.49221 1.90000
v -0.00450 0.01200 0.00000
vt 0.50000 0.52400
v -0.00450 0.70000 0.00000
vt 0.50000 1.90000
vn -0.86603 -0.00000 -0.50000
f 124/124/42 125/125/42 126/126/42
v -0.00225 0.70000 -0.00390
vt 0.49221 1.90000
v 0.00225 0.01200 -0.00390
vt 0.49221 0.52400
v -0.00225 0.01200 -0.00390
vt 0.49221 0.52400
vn 0.00000 0.00000 -1.00000
f 127/127/43 128/128/43 129/129/43
v -0.00225 0.70000 -0.00390
vt 0.49221 1.90000
v 0.00225 0.70000 -0.00390
vt 0.49221 1.90000
v 0.00225 0.01200 -0.00390
vt 0.49221 0.52400
vn 0.00000 0.00000 -1.00000
f 130/130/44 131/131/44 132/132/44
v 0.00225 0.01200 0.00390
vt 0.50779 0.52400
v -0.00450 0.01200 0.00000
vt 0.50000 0.52400
v -0.00225 0.01200 -0.00390
vt 0.49221 0.52400
vn 0.00000 -1.00000 0.00000
f 133/133/45 134/134/45 135/135/45
v 0.00225 0.01200 0.00390
vt 0.50779 0.52400
v 0.00225 0.01200 -0.00390
vt 0.49221 0.52400
v 0.00450 0.01200 0.00000
vt 0.50000 0.52400
vn 0.00000 -1.00000 0.00000
f 136/136/46 137/137/46 138/138/46
v 0.00225 0.01200 0.00390
vt 0.50779 0.52400
v -0.00225 0.01200 0.00390
vt 0.50779 0.52400
v -0.00450 0.01200 0.00000
vt 0.50000 0.52400
vn 0.00000 -1.00000 0.00000
f 139/139/47 140/140/47 141/141/47
v 0.00225 0.01200 0.00390
vt 0.50779 0.52400
v -0.00225 0.01200 -0.00390
vt 0.49221 0.52400
v 0.00225 0.01200 -0.00390
vt 0.49221 0.52400
vn 0.00000 -1.00000 0.00000
f 142/142/48 143/143/48 144/144/48
v 0.00450 0.70000 0.00000
vt 0.50000 1.90000
v 0.00225 0.01200 -0.00390
vt 0.49221 0.52400
v 0.00225 0.70000 -0.00390
vt 0.49221 1.90000
vn 0.86603 0.00000 -0.50000
f 145/145/49 146/146/49 147/147/49
v 0.00450 0.70000 0.00000
vt 0.50000 1.90000
v 0.00450 0.01200 0.00000
vt 0.50000 0.52400
v 0.00225 0.01200 -0.00390
vt 0.49221 0.52400
vn 0.86603 0.00000 -0.50000
f 148/148/50 149/149/50 150/150/50
v 0.00450 0.70000 0.00000
vt 0.50000 1.90000
v 0.00225 0.01200 0.00390
vt 0.50779 0.52400
v 0.00450 0.01200 0.00000
vt 0.50000 0.52400
vn 0.86603 -0.00000 0.50000
f 151/151/51 152/152/51 153/153/51
v 0.00450 0.70000 0.00000
vt 0.50000 1.90000
v 0.00225 0.70000 0.00390
vt 0.50779 1.90000
v 0.00225 0.01200 0.00390
vt 0.50779 0.52400
vn 0.86603 -0.00000 0.50000
f 154/154/52 155/155/52 156/156/52
v -0.00225 0.70000 0.00390
vt 0.50779 1.90000
v 0.00225 0.70000 -0.00390
vt 0.49221 1.90000
v -0.00225 0.70000 -0.00390
vt 0.49221 1.90000
vn 0.00000 1.00000 -0.00000
f 157/157/53 158/158/53 159/159/53
v -0.00225 0.70000 0.00390
vt 0.50779 1.90000
v -0.00225 0.70000 -0.00390
vt 0.49221 1.90000
v -0.00450 0.70000 0.00000
vt 0.50000 1.90000
vn 0.00000 1.00000 -0.00000
f 160/160/54 161/161/54 162/162/54
v -0.00225 0.70000 0.00390
vt 0.50779 1.90000
v 0.00450 0.70000 0.00000
vt 0.50000 1.90000
v 0.00225 0.70000 -0.00390
vt 0.49221 1.90000
vn 0.00000 1.00000 -0.00000
f 163/163/55 164/164/55 165/165/55
v -0.00225 0.70000 0.00390
vt 0.50779 1.90000
v 0.00225 0.70000 0.00390
vt 0.50779 1.90000
v 0.00450 0.70000 0.00000
vt 0.50000 1.90000
vn 0.00000 1.00000 -0.00000
f 166/166/56 167/167/56 168/168/56
v -0.00225 0.70000 0.00390
vt 0.50779 1.90000
v -0.00450 0.01200 0.00000
vt 0.50000 0.52400
v -0.00225 0.01200 0.00390
vt 0.50779 0.52400
vn -0.86603 0.00000 0.50000
f 169/169/57 170/170/57 171/171/57
v -0.00225 0.70000 0.00390
vt 0.50779 1.90000
v -0.00450 0.70000 0.00000
vt 0.50000 1.90000
v -0.00450 0.01200 0.00000
vt 0.50000 0.52400
vn -0.86603 0.00000 0.50000
f 172/172/58 173/173/58 174/174/58
v -0.00225 0.70000 0.00390
vt 0.50779 1.90000
v -0.00225 0.01200 0.00390
vt 0.50779 0.52400
v 0.00225 0.01200 0.00390
vt 0.50779 0.52400
vn -0.00000 -0.00000 1.00000
f 175/175/59 176/176/59 177/177/59
v -0.00225 0.70000 0.00390
vt 0.50779 1.90000
v 0.00225 0.01200 0.00390
vt 0.50779 0.52400
v 0.00225 0.70000 0.00390
vt 0.50779 1.90000
vn -0.00000 -0.00000 1.00000
f 178/178/60 179/179/60 180/180/60
o Steel
usemtl Steel
v -0.00300 0.70500 -0.00520
vt 0.48961 1.91000
v 0.00600 0.70500 0.00000
vt 0.50000 1.91000
v 0.00300 0.70500 -0.00520
vt 0.48961 1.91000
vn 0.00000 1.00000 0.00000
f 181/181/61 182/182/61 183/183/61
v -0.00300 0.70500 -0.00520
vt 0.48961 1.91000
v 0.00300 0.70500 0.00520
vt 0.51039 1.91000
v 0.00600 0.70500 0.00000
vt 0.50000 1.91000
vn 0.00000 1.00000 0.00000
f 184/184/62 185/185/62 186/186/62
v -0.00300 0.70500 -0.00520
vt 0.48961 1.91000
v -0.00600 0.70500 0.00000
vt 0.50000 1.91000
v -0.00300 0.70500 0.00520
vt 0.51039 1.91000
vn 0.00000 1.00000 0.00000
f 187/187/63 188/188/63 189/189/63
v -0.00300 0.70500 -0.00520
vt 0.48961 1.91000
v -0.00300 0.70500 0.00520
vt 0.51039 1.91000
v 0.00300 0.70500 0.00520
vt 0.51039 1.91000
vn 0.00000 1.00000 0.00000
f 190/190/64 191/191/64 192/192/64
v -0.00250 0.69000 0.00433
vt 0.50866 1.88000
v -0.00300 0.70500 0.00520
vt 0.51039 1.91000
v -0.00600 0.70500 0.00000
vt 0.50000 1.91000
vn -0.86459 -0.05764 0.49917
f 193/193/65 194/194/65 195/195/65
v -0.00250 0.69000 0.00433
vt 0.50866 1.88000
v -0.00600 0.70500 0.00000
vt 0.50000 1.91000
v -0.00500 0.69000 0.00000
vt 0.50000 1.88000
vn -0.86459 -0.05764 0.49917
f 196/196/66 197/197/66 198/198/66
v -0.00250 0.69000 0.00433
vt 0.50866 1.88000
v 0.00300 0.70500 0.00520
vt 0.51039 1.91000
v -0.00300 0.70500 0.00520
vt 0.51039 1.91000
vn -0.00000 -0.05764 0.99834
f 199/199/67 200/200/67 201/201/67
v -0.00250 0.69000 0.00433
vt 0.50866 1.88000
v 0.00250 0.69000 0.00433
vt 0.50866 1.88000
v 0.00300 0.70500 0.00520
vt 0.51039 1.91000
vn -0.00000 -0.05764 0.99834
f 202/202/68 203/203/68 204/204/68
v -0.00250 0.69000 -0.00433
vt 0.49134 1.88000
v -0.00600 0.70500 0.00000
vt 0.50000 1.91000
v -0.00300 0.70500 -0.00520
vt 0.48961 1.91000
vn -0.86459 -0.05764 -0.49917
f 205/205/69 206/206/69 207/207/69
v -0.00250 0.69000 -0.00433
vt 0.49134 1.88000
v -0.00500 0.69000 0.00000
vt 0.50000 1.88000
v -0.00600 0.70500 0.00000
vt 0.50000 1.91000
vn -0.86459 -0.05764 -0.49917
f 208/208/70 209/209/70 210/210/70
v -0.00250 0.69000 -0.00433
vt 0.49134 1.88000
v -0.00300 0.70500 -0.00520
vt 0.48961 1.91000
v 0.00300 0.70500 -0.00520
vt 0.48961 1.91000
vn 0.00000 -0.05764 -0.99834
f 211/211/71 212/212/71 213/213/71
v -0.00250 0.69000 -0.00433
vt 0.49134 1.88000
v 0.00300 0.70500 -0.00520
vt 0.48961 1.91000
v 0.00250 0.69000 -0.00433
vt 0.49134 1.88000
vn 0.00000 -0.05764 -0.99834
f 214/214/72 215/215/72 216/216/72
v 0.00500 0.69000 0.00000
vt 0.50000 1.88000
v -0.00500 0.69000 0.00000
vt 0.50000 1.88000
v -0.00250 0.69000 -0.00433
vt 0.49134 1.88000
vn -0.00000 -1.00000 0.00000
f 217/217/73 218/218/73 219/219/73
v 0.00500 0.69000 0.00000
vt 0.50000 1.88000
v -0.00250 0.69000 0.00433
vt 0.50866 1.88000
v -0.00500 0.69000 0.00000
vt 0.50000 1.88000
vn -0.00000 -1.00000 0.00000
f 220/220/74 221/221/74 222/222/74
v 0.00500 0.69000 0.00000
vt 0.50000 1.88000
v 0.00250 0.69000 0.00433
vt 0.50866 1.88000
v -0.00250 0.69000 0.00433
vt 0.50866 1.88000
vn -0.00000 -1.00000 0.00000
f 223/223/75 224/224/75 225/225/75
v 0.00500 0.69000 0.00000
vt 0.50000 1.88000
v -0.00250 0.69000 -0.00433
vt 0.49134 1.88000
v 0.00250 0.69000 -0.00433
vt 0.49134 1.88000
vn -0.00000 -1.00000 0.00000
f 226/226/76 227/227/76 228/228/76
v 0.00500 0.69000 0.00000
vt 0.50000 1.88000
v 0.00600 0.70500 0.00000
vt 0.50000 1.91000
v 0.00300 0.70500 0.00520
vt 0.51039 1.91000
vn 0.86459 -0.05764 0.49917
f 229/229/77 230/230/77 231/231/77
v 0.00500 0.69000 0.00000
vt 0.50000 1.88000
v 0.00300 0.70500 0.00520
vt 0.51039 1.91000
v 0.00250 0.69000 0.00433
vt 0.50866 1.88000
vn 0.86459 -0.05764 0.49917
f 232/232/78 233/233/78 234/234/78
v 0.00500 0.69000 0.00000
vt 0.50000 1.88000
v 0.00300 0.70500 -0.00520
vt 0.48961 1.91000
v 0.00600 0.70500 0.00000
vt 0.50000 1.91000
vn 0.86459 -0.05764 -0.49917
f 235/235/79 236/236/79 237/237/79
v 0.00500 0.69000 0.00000
vt 0.50000 1.88000
v 0.00250 0.69000 -0.00433
vt 0.49134 1.88000
v 0.00300 0.70500 -0.00520
vt 0.48961 1.91000
vn 0.86459 -0.05764 -0.49917
f 238/238/80 239/239/80 240/240/80
v -0.00000 0.70500 -0.00250
vt 0.49500 1.91000
v -0.00000 0.74500 0.00000
vt 0.50000 1.99000
v 0.00900 0.70500 -0.00080
vt 0.49840 1.91000
vn 0.18526 0.06130 -0.98078
f 241/241/81 242/242/81 243/243/81
v -0.00000 0.70500 -0.00250
vt 0.49500 1.91000
v -0.00900 0.70500 -0.00080
vt 0.49840 1.91000
v -0.00000 0.74500 0.00000
vt 0.50000 1.99000
vn -0.18526 0.06130 -0.98078
f 244/244/82 245/245/82 246/246/82
v 0.00900 0.70500 0.00080
vt 0.50160 1.91000
v 0.00900 0.70500 -0.00080
vt 0.49840 1.91000
v -0.00000 0.74500 0.00000
vt 0.50000 1.99000
vn 0.97561 0.21951 -0.00000
f 247/247/83 248/248/83 249/249/83
v 0.00900 0.70500 0.00080
vt 0.50160 1.91000
v -0.00000 0.74500 0.00000
vt 0.50000 1.99000
v -0.00000 0.70500 0.00250
vt 0.50500 1.91000
vn 0.18526 0.06130 0.98078
f 250/250/84 251/251/84 252/252/84
v -0.00900 0.70500 0.00080
vt 0.50160 1.91000
v -0.00000 0.74500 0.00000
vt 0.50000 1.99000
v -0.00900 0.70500 -0.00080
vt 0.49840 1.91000
vn -0.97561 0.21951 0.00000
f 253/253/85 254/254/85 255/255/85
v -0.00900 0.70500 0.00080
vt 0.50160 1.91000
v -0.00000 0.70500 0.00250
vt 0.50500 1.91000
v -0.00000 0.74500 0.00000
vt 0.50000 1.99000
vn -0.18526 0.06130 0.98078
f 256/256/86 257/257/86 258/258/86
v -0.00900 0.70500 0.00080
vt 0.50160 1.91000
v 0.00900 0.70500 -0.00080
vt 0.49840 1.91000
v 0.00900 0.70500 0.00080
vt 0.50160 1.91000
vn -0.00000 -1.00000 -0.00000
f 259/259/87 260/260/87 261/261/87
v -0.00900 0.70500 0.00080
vt 0.50160 1.91000
v -0.00000 0.70500 -0.00250
vt 0.49500 1.91000
v 0.00900 0.70500 -0.00080
vt 0.49840 1.91000
vn -0.00000 -1.00000 -0.00000
f 262/262/88 263/263/88 264/264/88
v -0.00900 0.70500 0.00080
vt 0.50160 1.91000
v -0.00900 0.70500 -0.00080
vt 0.49840 1.91000
v -0.00000 0.70500 -0.00250
vt 0.49500 1.91000
vn -0.00000 -1.00000 -0.00000
f 265/265/89 266/266/89 267/267/89
v -0.00900 0.70500 0.00080
vt 0.50160 1.91000
v 0.00900 0.70500 0.00080
vt 0.50160 1.91000
v -0.00000 0.70500 0.00250
vt 0.50500 1.91000
vn -0.00000 -1.00000 -0.00000
f 268/268/90 269/269/90 270/270/90
o Feather
usemtl Feather
v -0.00400 0.02000 -0.00060
vt 0.49880 0.54000
v -0.00400 0.02000 0.00060
vt 0.50120 0.54000
v -0.01600 0.03500 0.00000
vt 0.50000 0.57000
vn -0.78087 -0.62470 -0.00000
f 271/271/91 272/272/91 273/273/91
v -0.00400 0.02000 -0.00060
vt 0.49880 0.54000
v -0.00400 0.10000 0.00000
vt 0.50000 0.70000
v -0.00400 0.02000 0.00060
vt 0.50120 0.54000
vn 1.00000 0.00000 0.00000
f 274/274/92 275/275/92 276/276/92
v -0.01300 0.08500 0.00000
vt 0.50000 0.67000
v -0.01600 0.03500 0.00000
vt 0.50000 0.57000
v -0.00400 0.02000 0.00060
vt 0.50120 0.54000
vn -0.04646 0.00279 0.99892
f 277/277/93 278/278/93 279/279/93
v -0.01300 0.08500 0.00000
vt 0.50000 0.67000
v -0.00400 0.02000 0.00060
vt 0.50120 0.54000
v -0.00400 0.10000 0.00000
vt 0.50000 0.70000
vn -0.01250 0.00750 0.99989
f 280/280/94 281/281/94 282/282/94
v -0.01300 0.08500 0.00000
vt 0.50000 0.67000
v -0.00400 0.02000 -0.00060
vt 0.49880 0.54000
v -0.01600 0.03500 0.00000
vt 0.50000 0.57000
vn -0.04646 0.00279 -0.99892
f 283/283/95 284/284/95 285/285/95
v -0.01300 0.08500 0.00000
vt 0.50000 0.67000
v -0.00400 0.10000 0.00000
vt 0.50000 0.70000
v -0.00400 0.02000 -0.00060
vt 0.49880 0.54000
vn -0.01250 0.00750 -0.99989
f 286/286/96 287/287/96 288/288/96
v 0.00252 0.02000 0.00316
vt 0.50633 0.54000
v 0.00800 0.03500 0.01386
vt 0.52771 0.57000
v 0.00148 0.02000 0.00376
vt 0.50753 0.54000
vn 0.39043 -0.62470 0.67625
f 289/289/97 290/290/97 291/291/97
v 0.00252 0.02000 0.00316
vt 0.50633 0.54000
v 0.00148 0.02000 0.00376
vt 0.50753 0.54000
v 0.00200 0.10000 0.00346
vt 0.50693 0.70000
vn -0.50000 0.00000 -0.86603
f 292/292/98 293/293/98 294/294/98
v 0.00650 0.08500 0.01126
vt 0.52252 0.67000
v 0.00148 0.02000 0.00376
vt 0.50753 0.54000
v 0.00800 0.03500 0.01386
vt 0.52771 0.57000
vn -0.84186 0.00279 0.53969
f 295/295/99 296/296/99 297/297/99
v 0.00650 0.08500 0.01126
vt 0.52252 0.67000
v 0.00200 0.10000 0.00346
vt 0.50693 0.70000
v 0.00148 0.02000 0.00376
vt 0.50753 0.54000
vn -0.85968 0.00750 0.51077
f 298/298/100 299/299/100 300/300/100
v 0.00650 0.08500 0.01126
vt 0.52252 0.67000
v 0.00800 0.03500 0.01386
vt 0.52771 0.57000
v 0.00252 0.02000 0.00316
vt 0.50633 0.54000
vn 0.88832 0.00279 -0.45922
f 301/301/101 302/302/101 303/303/101
v 0.00650 0.08500 0.01126
vt 0.52252 0.67000
v 0.00252 0.02000 0.00316
vt 0.50633 0.54000
v 0.00200 0.10000 0.00346
vt 0.50693 0.70000
vn 0.87218 0.00750 -0.48912
f 304/304/102 305/305/102 306/306/102
v 0.00252 0.02000 -0.00316
vt 0.49367 0.54000
v 0.00148 0.02000 -0.00376
vt 0.49247 0.54000
v 0.00800 0.03500 -0.01386
vt 0.47229 0.57000
vn 0.39043 -0.62470 -0.67625
f 307/307/103 308/308/103 309/309/103
v 0.00252 0.02000 -0.00316
vt 0.49367 0.54000
v 0.00200 0.10000 -0.00346
vt 0.49307 0.70000
v 0.00148 0.02000 -0.00376
vt 0.49247 0.54000
vn -0.50000 0.00000 0.86603
f 310/310/104 311/311/104 312/312/104
v 0.00650 0.08500 -0.01126
vt 0.47748 0.67000
v 0.00800 0.03500 -0.01386
vt 0.47229 0.57000
v 0.00148 0.02000 -0.00376
vt 0.49247 0.54000
vn -0.84186 0.00279 -0.53969
f 313/313/105 314/314/105 315/315/105
v 0.00650 0.08500 -0.01126
vt 0.47748 0.67000
v 0.00148 0.02000 -0.00376
vt 0.49247 0.54000
v 0.00200 0.10000 -0.00346
vt 0.49307 0.70000
vn -0.85968 0.00750 -0.51077
f 316/316/106 317/317/106 318/318/106
v 0.00650 0.08500 -0.01126
vt 0.47748 0.67000
v 0.00252 0.02000 -0.00316
vt 0.49367 0.54000
v 0.00800 0.03500 -0.01386
vt 0.47229 0.57000
vn 0.88832 0.00279 0.45922
f 319/319/107 320/320/107 321/321/107
v 0.00650 0.08500 -0.01126
vt 0.47748 0.67000
v 0.00200 0.10000 -0.00346
vt 0.49307 0.70000
v 0.00252 0.02000 -0.00316
vt 0.49367 0.54000
vn 0.87218 0.00750 0.48912
f 322/322/108 323/323/108 324/324/108
