# Generated for the VR Showcase
mtllib HayBale.mtl
o Straw
usemtl Straw
v 0.55000 -0.40000 -0.25000
vt 0.00000 -0.30000
v 0.55000 -0.35000 -0.30000
vt -0.10000 -0.20000
v 0.60000 -0.35000 -0.25000
vt 0.00000 -0.20000
vn 0.57735 -0.57735 -0.57735
f 1/1/1 2/2/1 3/3/1
v -0.55000 0.40000 0.25000
vt 1.00000 1.30000
v -0.60000 0.35000 0.25000
vt 1.00000 1.20000
v -0.55000 0.35000 0.30000
vt 1.10000 1.20000
vn -0.57735 0.57735 0.57735
f 4/4/2 5/5/2 6/6/2
v 0.55000 0.35000 0.30000
vt 1.10000 1.20000
v 0.60000 0.35000 0.25000
vt 1.00000 1.20000
v 0.55000 0.40000 0.25000
vt 1.00000 1.30000
vn 0.57735 0.57735 0.57735
f 7/7/3 8/8/3 9/9/3
v -0.60000 0.35000 -0.25000
vt 0.00000 1.20000
v -0.55000 0.40000 -0.25000
vt 0.00000 1.30000
v -0.55000 0.35000 -0.30000
vt -0.10000 1.20000
vn -0.57735 0.57735 -0.57735
f 10/10/4 11/11/4 12/12/4
v 0.55000 0.35000 -0.30000
vt -0.10000 1.20000
v 0.55000 0.40000 -0.25000
vt 0.00000 1.30000
v 0.60000 0.35000 -0.25000
vt 0.00000 1.20000
vn 0.57735 0.57735 -0.57735
f 13/13/5 14/14/5 15/15/5
v -0.55000 -0.40000 0.25000
vt 1.00000 -0.30000
v -0.55000 -0.35000 0.30000
vt 1.10000 -0.20000
v -0.60000 -0.35000 0.25000
vt 1.00000 -0.20000
vn -0.57735 -0.57735 0.57735
f 16/16/6 17/17/6 18/18/6
v 0.55000 -0.40000 0.25000
vt 1.00000 -0.30000
v 0.60000 -0.35000 0.25000
vt 1.00000 -0.20000
v 0.55000 -0.35000 0.30000
vt 1.10000 -0.20000
vn 0.57735 -0.57735 0.57735
f 19/19/7 20/20/7 21/21/7
v -0.55000 -0.40000 -0.25000
vt 0.00000 -0.30000
v -0.60000 -0.35000 -0.25000
vt 0.00000 -0.20000
v -0.55000 -0.35000 -0.30000
vt -0.10000 -0.20000
vn -0.57735 -0.57735 -0.57735
f 22/22/8 23/23/8 24/24/8
v 0.60000 0.35000 -0.25000
vt 0.00000 1.20000
v 0.60000 -0.35000 0.25000
vt 1.00000 -0.20000
v 0.60000 -0.35000 -0.25000
vt 0.00000 -0.20000
vn 1.00000 0.00000 -0.00000
f 25/25/9 26/26/9 27/27/9
v 0.60000 0.35000 -0.25000
vt 0.00000 1.20000
v 0.60000 0.35000 0.25000
vt 1.00000 1.20000
v 0.60000 -0.35000 0.25000
vt 1.00000 -0.20000
vn 1.00000 0.00000 -0.00000
f 28/28/10 29/29/10 30/30/10
v 0.55000 0.40000 0.25000
vt 1.00000 1.30000
v 0.60000 0.35000 0.25000
vt 1.00000 1.20000
v 0.60000 0.35000 -0.25000
vt 0.00000 1.20000
vn 0.70711 0.70711 -0.00000
f 31/31/11 32/32/11 33/33/11
v 0.55000 0.40000 0.25000
vt 1.00000 1.30000
v 0.60000 0.35000 -0.25000
vt 0.00000 1.20000
v 0.55000 0.40000 -0.25000
vt 0.00000 1.30000
vn 0.70711 0.70711 -0.00000
f 34/34/12 35/35/12 36/36/12
v -0.55000 0.40000 0.25000
vt 1.00000 1.30000
v 0.55000 0.40000 0.25000
vt 1.00000 1.30000
v 0.55000 0.40000 -0.25000
vt 0.00000 1.30000
vn 0.00000 1.00000 -0.00000
f 37/37/13 38/38/13 39/39/13
v -0.55000 0.40000 0.25000
vt 1.00000 1.30000
v 0.55000 0.40000 -0.25000
vt 0.00000 1.30000
v -0.55000 0.40000 -0.25000
vt 0.00000 1.30000
vn 0.00000 1.00000 -0.00000
f 40/40/14 41/41/14 42/42/14
v 0.55000 0.35000 0.30000
vt 1.10000 1.20000
v 0.60000 -0.35000 0.25000
vt 1.00000 -0.20000
v 0.60000 0.35000 0.25000
vt 1.00000 1.20000
vn 0.70711 0.00000 0.70711
f 43/43/15 44/44/15 45/45/15
v 0.55000 0.35000 0.30000
vt 1.10000 1.20000
v 0.55000 -0.35000 0.30000
vt 1.10000 -0.20000
v 0.60000 -0.35000 0.25000
vt 1.00000 -0.20000
vn 0.70711 0.00000 0.70711
f 46/46/16 47/47/16 48/48/16
v 0.55000 0.35000 0.30000
vt 1.10000 1.20000
v -0.55000 -0.35000 0.30000
vt 1.10000 -0.20000
v 0.55000 -0.35000 0.30000
vt 1.10000 -0.20000
vn 0.00000 -0.00000 1.00000
f 49/49/17 50/50/17 51/51/17
v 0.55000 0.35000 0.30000
vt 1.10000 1.20000
v -0.55000 0.35000 0.30000
vt 1.10000 1.20000
v -0.55000 -0.35000 0.30000
vt 1.10000 -0.20000
vn 0.00000 -0.00000 1.00000
f 52/52/18 53/53/18 54/54/18
v 0.55000 0.35000 0.30000
vt 1.10000 1.20000
v 0.55000 0.40000 0.25000
vt 1.00000 1.30000
v -0.55000 0.40000 0.25000
vt 1.00000 1.30000
vn -0.00000 0.70711 0.70711
f 55/55/19 56/56/19 57/57/19
v 0.55000 0.35000 0.30000
vt 1.10000 1.20000
v -0.55000 0.40000 0.25000
vt 1.00000 1.30000
v -0.55000 0.35000 0.30000
vt 1.10000 1.20000
vn -0.00000 0.70711 0.70711
f 58/58/20 59/59/20 60/60/20
v -0.60000 -0.35000 0.25000
vt 1.00000 -0.20000
v -0.55000 -0.35000 0.30000
vt 1.10000 -0.20000
v -0.55000 0.35000 0.30000
vt 1.10000 1.20000
vn -0.70711 0.00000 0.70711
f 61/61/21 62/62/21 63/63/21
v -0.60000 -0.35000 0.25000
vt 1.00000 -0.20000
v -0.55000 0.35000 0.30000
vt 1.10000 1.20000
v -0.60000 0.35000 0.25000
vt 1.00000 1.20000
vn -0.70711 0.00000 0.70711
f 64/64/22 65/65/22 66/66/22
v -0.60000 0.35000 -0.25000
vt 0.00000 1.20000
v -0.60000 -0.35000 0.25000
vt 1.00000 -0.20000
v -0.60000 0.35000 0.25000
vt 1.00000 1.20000
vn -1.00000 -0.00000 0.00000
f 67/67/23 68/68/23 69/69/23
v -0.60000 0.35000 -0.25000
vt 0.00000 1.20000
v -0.60000 -0.35000 -0.25000
vt 0.00000 -0.20000
v -0.60000 -0.35000 0.25000
vt 1.00000 -0.20000
vn -1.00000 -0.00000 0.00000
f 70/70/24 71/71/24 72/72/24
v -0.60000 0.35000 -0.25000
vt 0.00000 1.20000
v -0.55000 -0.35000 -0.30000
vt -0.10000 -0.20000
v -0.60000 -0.35000 -0.25000
vt 0.00000 -0.20000
vn -0.70711 -0.00000 -0.70711
f 73/73/25 74/74/25 75/75/25
v -0.60000 0.35000 -0.25000
vt 0.00000 1.20000
v -0.55000 0.35000 -0.30000
vt -0.10000 1.20000
v -0.55000 -0.35000 -0.30000
vt -0.10000 -0.20000
vn -0.70711 -0.00000 -0.70711
f 76/76/26 77/77/26 78/78/26
v -0.60000 0.35000 -0.25000
vt 0.00000 1.20000
v -0.55000 0.40000 0.25000
vt 1.00000 1.30000
v -0.55000 0.40000 -0.25000
vt 0.00000 1.30000
vn -0.70711 0.70711 0.00000
f 79/79/27 80/80/27 81/81/27
v -0.60000 0.35000 -0.25000
vt 0.00000 1.20000
v -0.60000 0.35000 0.25000
vt 1.00000 1.20000
v -0.55000 0.40000 0.25000
vt 1.00000 1.30000
vn -0.70711 0.70711 0.00000
f 82/82/28 83/83/28 84/84/28
v 0.55000 0.35000 -0.30000
vt -0.10000 1.20000
v -0.55000 0.40000 -0.25000
vt 0.00000 1.30000
v 0.55000 0.40000 -0.25000
vt 0.00000 1.30000
vn -0.00000 0.70711 -0.70711
f 85/85/29 86/86/29 87/87/29
v 0.55000 0.35000 -0.30000
vt -0.10000 1.20000
v -0.55000 0.35000 -0.30000
vt -0.10000 1.20000
v -0.55000 0.40000 -0.25000
vt 0.00000 1.30000
vn -0.00000 0.70711 -0.70711
f 88/88/30 89/89/30 90/90/30
v 0.55000 0.35000 -0.30000
vt -0.10000 1.20000
v -0.55000 -0.35000 -0.30000
vt -0.10000 -0.20000
v -0.55000 0.35000 -0.30000
vt -0.10000 1.20000
vn -0.00000 0.00000 -1.00000
f 91/91/31 92/92/31 93/93/31
v 0.55000 0.35000 -0.30000
vt -0.10000 1.20000
v 0.55000 -0.35000 -0.30000
vt -0.10000 -0.20000
v -0.55000 -0.35000 -0.30000
vt -0.10000 -0.20000
vn -0.00000 0.00000 -1.00000
f 94/94/32 95/95/32 96/96/32
v 0.55000 0.35000 -0.30000
vt -0.10000 1.20000
v 0.60000 0.35000 -0.25000
vt 0.00000 1.20000
v 0.60000 -0.35000 -0.25000
vt 0.00000 -0.20000
vn 0.70711 -0.00000 -0.70711
f 97/97/33 98/98/33 99/99/33
v 0.55000 0.35000 -0.30000
vt -0.10000 1.20000
v 0.60000 -0.35000 -0.25000
vt 0.00000 -0.20000
v 0.55000 -0.35000 -0.30000
vt -0.10000 -0.20000
vn 0.70711 -0.00000 -0.70711
f 100/100/34 101/101/34 102/102/34
v 0.55000 -0.40000 0.25000
vt 1.00000 -0.30000
v 0.60000 -0.35000 -0.25000
vt 0.00000 -0.20000
v 0.60000 -0.35000 0.25000
vt 1.00000 -0.20000
vn 0.70711 -0.70711 -0.00000
f 103/103/35 104/104/35 105/105/35
v 0.55000 -0.40000 0.25000
vt 1.00000 -0.30000
v 0.55000 -0.40000 -0.25000
vt 0.00000 -0.30000
v 0.60000 -0.35000 -0.25000
vt 0.00000 -0.20000
vn 0.70711 -0.70711 -0.00000
f 106/106/36 107/107/36 108/108/36
v 0.55000 -0.40000 0.25000
vt 1.00000 -0.30000
v 0.55000 -0.35000 0.30000
vt 1.10000 -0.20000
v -0.55000 -0.35000 0.30000
vt 1.10000 -0.20000
vn 0.00000 -0.70711 0.70711
f 109/109/37 110/110/37 111/111/37
v 0.55000 -0.40000 0.25000
vt 1.00000 -0.30000
v -0.55000 -0.35000 0.30000
vt 1.10000 -0.20000
v -0.55000 -0.40000 0.25000
vt 1.00000 -0.30000
vn 0.00000 -0.70711 0.70711
f 112/112/38 113/113/38 114/114/38
v -0.55000 -0.40000 -0.25000
vt 0.00000 -0.30000
v -0.60000 -0.35000 0.25000
vt 1.00000 -0.20000
v -0.60000 -0.35000 -0.25000
vt 0.00000 -0.20000
vn -0.70711 -0.70711 0.00000
f 115/115/39 116/116/39 117/117/39
v -0.55000 -0.40000 -0.25000
vt 0.00000 -0.30000
v -0.55000 -0.40000 0.25000
vt 1.00000 -0.30000
v -0.60000 -0.35000 0.25000
vt 1.00000 -0.20000
vn -0.70711 -0.70711 0.00000
f 118/118/40 119/119/40 120/120/40
v -0.55000 -0.40000 -0.25000
vt 0.00000 -0.30000
v -0.55000 -0.35000 -0.30000
vt -0.10000 -0.20000
v 0.55000 -0.35000 -0.30000
vt -0.10000 -0.20000
vn 0.00000 -0.70711 -0.70711
f 121/121/41 122/122/41 123/123/41
v -0.55000 -0.40000 -0.25000
vt 0.00000 -0.30000
v 0.55000 -0.35000 -0.30000
vt -0.10000 -0.20000
v 0.55000 -0.40000 -0.25000
vt 0.00000 -0.30000
vn 0.00000 -0.70711 -0.70711
f 124/124/42 125/125/42 126/126/42
v -0.55000 -0.40000 -0.25000
vt 0.00000 -0.30000
v 0.55000 -0.40000 -0.25000
vt 0.00000 -0.30000
v 0.55000 -0.40000 0.25000
vt 1.00000 -0.30000
vn -0.00000 -1.00000 0.00000
f 127/127/43 128/128/43 129/129/43
v -0.55000 -0.40000 -0.25000
vt 0.00000 -0.30000
v 0.55000 -0.40000 0.25000
vt 1.00000 -0.30000
v -0.55000 -0.40000 0.25000
vt 1.00000 -0.30000
vn -0.00000 -1.00000 0.00000
f 130/130/44 131/131/44 132/132/44
o Rope
usemtl Rope
v 0.28500 0.40500 -0.30500
vt -0.11000 1.31000
v 0.31500 0.40500 -0.30500
vt -0.11000 1.31000
v 0.31500 -0.40500 -0.30500
vt -0.11000 -0.31000
vn 0.00000 -0.00000 -1.00000
f 133/133/45 134/134/45 135/135/45
v 0.28500 0.40500 -0.30500
vt -0.11000 1.31000
v 0.31500 -0.40500 -0.30500
vt -0.11000 -0.31000
v 0.28500 -0.40500 -0.30500
vt -0.11000 -0.31000
vn 0.00000 -0.00000 -1.00000
f 136/136/46 137/137/46 138/138/46
v 0.28500 -0.40500 0.30500
vt 1.11000 -0.31000
v 0.28500 -0.40500 -0.30500
vt -0.11000 -0.31000
v 0.31500 -0.40500 -0.30500
vt -0.11000 -0.31000
vn -0.00000 -1.00000 0.00000
f 139/139/47 140/140/47 141/141/47
v 0.28500 -0.40500 0.30500
vt 1.11000 -0.31000
v 0.31500 -0.40500 -0.30500
vt -0.11000 -0.31000
v 0.31500 -0.40500 0.30500
vt 1.11000 -0.31000
vn -0.00000 -1.00000 0.00000
f 142/142/48 143/143/48 144/144/48
v 0.28500 -0.40500 0.30500
vt 1.11000 -0.31000
v 0.28500 0.40500 -0.30500
vt -0.11000 1.31000
v 0.28500 -0.40500 -0.30500
vt -0.11000 -0.31000
vn -1.00000 -0.00000 -0.00000
f 145/145/49 146/146/49 147/147/49
v 0.28500 -0.40500 0.30500
vt 1.11000 -0.31000
v 0.28500 0.40500 0.30500
vt 1.11000 1.31000
v 0.28500 0.40500 -0.30500
vt -0.11000 1.31000
vn -1.00000 -0.00000 -0.00000
f 148/148/50 149/149/50 150/150/50
v 0.31500 0.40500 0.30500
vt 1.11000 1.31000
v 0.31500 -0.40500 -0.30500
vt -0.11000 -0.31000
v 0.31500 0.40500 -0.30500
vt -0.11000 1.31000
vn 1.00000 -0.00000 -0.00000
f 151/151/51 152/152/51 153/153/51
v 0.31500 0.40500 0.30500
vt 1.11000 1.31000
v 0.31500 -0.40500 0.30500
vt 1.11000 -0.31000
v 0.31500 -0.40500 -0.30500
vt -0.11000 -0.31000
vn 1.00000 -0.00000 -0.00000
f 154/154/52 155/155/52 156/156/52
v 0.31500 0.40500 0.30500
vt 1.11000 1.31000
v 0.31500 0.40500 -0.30500
vt -0.11000 1.31000
v 0.28500 0.40500 -0.30500
vt -0.11000 1.31000
vn -0.00000 1.00000 -0.00000
f 157/157/53 158/158/53 159/159/53
v 0.31500 0.40500 0.30500
vt 1.11000 1.31000
v 0.28500 0.40500 -0.30500
vt -0.11000 1.31000
v 0.28500 0.40500 0.30500
vt 1.11000 1.31000
vn -0.00000 1.00000 -0.00000
f 160/160/54 161/161/54 162/162/54
v 0.31500 0.40500 0.30500
vt 1.11000 1.31000
v 0.28500 -0.40500 0.30500
vt 1.11000 -0.31000
v 0.31500 -0.40500 0.30500
vt 1.11000 -0.31000
vn 0.00000 -0.00000 1.00000
f 163/163/55 164/164/55 165/165/55
v 0.31500 0.40500 0.30500
vt 1.11000 1.31000
v 0.28500 0.40500 0.30500
vt 1.11000 1.31000
v 0.28500 -0.40500 0.30500
vt 1.11000 -0.31000
vn 0.00000 -0.00000 1.00000
f 166/166/56 167/167/56 168/168/56
v -0.31500 0.40500 -0.30500
vt -0.11000 1.31000
v -0.28500 0.40500 -0.30500
vt -0.11000 1.31000
v -0.28500 -0.40500 -0.30500
vt -0.11000 -0.31000
vn 0.00000 -0.00000 -1.00000
f 169/169/57 170/170/57 171/171/57
v -0.31500 0.40500 -0.30500
vt -0.11000 1.31000
v -0.28500 -0.40500 -0.30500
vt -0.11000 -0.31000
v -0.31500 -0.40500 -0.30500
vt -0.11000 -0.31000
vn 0.00000 -0.00000 -1.00000
f 172/172/58 173/173/58 174/174/58
v -0.31500 -0.40500 0.30500
vt 1.11000 -0.31000
v -0.31500 -0.40500 -0.30500
vt -0.11000 -0.31000
v -0.28500 -0.40500 -0.30500
vt -0.11000 -0.31000
vn -0.00000 -1.00000 0.00000
f 175/175/59 176/176/59 177/177/59
v -0.31500 -0.40500 0.30500
vt 1.11000 -0.31000
v -0.28500 -0.40500 -0.30500
vt -0.11000 -0.31000
v -0.28500 -0.40500 0.30500
vt 1.11000 -0.31000
vn -0.00000 -1.00000 0.00000
f 178/178/60 179/179/60 180/180/60
v -0.31500 -0.40500 0.30500
vt 1.11000 -0.31000
v -0.31500 0.40500 -0.30500
vt -0.11000 1.31000
v -0.31500 -0.40500 -0.30500
vt -0.11000 -0.31000
vn -1.00000 -0.00000 -0.00000
f 181/181/61 182/182/61 183/183/61
v -0.31500 -0.40500 0.30500
vt 1.11000 -0.31000
v -0.31500 0.40500 0.30500
vt 1.11000 1.31000
v -0.31500 0.40500 -0.30500
vt -0.11000 1.31000
vn -1.00000 -0.00000 -0.00000
f 184/184/62 185/185/62 186/186/62
v -0.28500 0.40500 0.30500
vt 1.11000 1.31000
v -0.28500 -0.40500 -0.30500
vt -0.11000 -0.31000
v -0.28500 0.40500 -0.30500
vt -0.11000 1.31000
vn 1.00000 -0.00000 -0.00000
f 187/187/63 188/188/63 189/189/63
v -0.28500 0.40500 0.30500
vt 1.11000 1.31000
v -0.28500 -0.40500 0.30500
vt 1.11000 -0.31000
v -0.28500 -0.40500 -0.30500
vt -0.11000 -0.31000
vn 1.00000 -0.00000 -0.00000
f 190/190/64 191/191/64 192/192/64
v -0.28500 0.40500 0.30500
vt 1.11000 1.31000
v -0.28500 0.40500 -0.30500
vt -0.11000 1.31000
v -0.31500 0.40500 -0.30500
vt -0.11000 1.31000
vn -0.00000 1.00000 -0.00000
f 193/193/65 194/194/65 195/195/65
v -0.28500 0.40500 0.30500
vt 1.11000 1.31000
v -0.31500 0.40500 -0.30500
vt -0.11000 1.31000
v -0.31500 0.40500 0.30500
vt 1.11000 1.31000
vn -0.00000 1.00000 -0.00000
f 196/196/66 197/197/66 198/198/66
v -0.28500 0.40500 0.30500
vt 1.11000 1.31000
v -0.31500 -0.40500 0.30500
vt 1.11000 -0.31000
v -0.28500 -0.40500 0.30500
vt 1.11000 -0.31000
vn 0.00000 -0.00000 1.00000
f 199/199/67 200/200/67 201/201/67
v -0.28500 0.40500 0.30500
vt 1.11000 1.31000
v -0.31500 0.40500 0.30500
vt 1.11000 1.31000
v -0.31500 -0.40500 0.30500
vt 1.11000 -0.31000
vn 0.00000 -0.00000 1.00000
f 202/202/68 203/203/68 204/204/68
