# Generated for the VR Showcase
mtllib Spear.mtl
o Gunmetal
usemtl Gunmetal
v -0.00849 -0.02000 -0.00849
vt 0.48303 0.46000
v -0.01800 -0.01200 0.00000
vt 0.50000 0.47600
v -0.01273 -0.01200 -0.01273
vt 0.47454 0.47600
vn -0.75939 -0.56954 -0.31455
f 1/1/1 2/2/1 3/3/1
v -0.00849 -0.02000 -0.00849
vt 0.48303 0.46000
v -0.01200 -0.02000 0.00000
vt 0.50000 0.46000
v -0.01800 -0.01200 0.00000
vt 0.50000 0.47600
vn -0.75939 -0.56954 -0.31455
f 4/4/2 5/5/2 6/6/2
v 0.01273 -0.01200 0.01273
vt 0.52546 0.47600
v 0.01800 -0.01200 0.00000
vt 0.50000 0.47600
v 0.01273 -0.01200 -0.01273
vt 0.47454 0.47600
vn -0.00000 1.00000 -0.00000
f 7/7/3 8/8/3 9/9/3
v 0.01273 -0.01200 0.01273
vt 0.52546 0.47600
v -0.01800 -0.01200 0.00000
vt 0.50000 0.47600
v -0.01273 -0.01200 0.01273
vt 0.52546 0.47600
vn -0.00000 1.00000 -0.00000
f 10/10/4 11/11/4 12/12/4
v 0.01273 -0.01200 0.01273
vt 0.52546 0.47600
v -0.01273 -0.01200 -0.01273
vt 0.47454 0.47600
v -0.01800 -0.01200 0.00000
vt 0.50000 0.47600
vn -0.00000 1.00000 -0.00000
f 13/13/5 14/14/5 15/15/5
v 0.01273 -0.01200 0.01273
vt 0.52546 0.47600
v 0.00000 -0.01200 -0.01800
vt 0.46400 0.47600
v -0.01273 -0.01200 -0.01273
vt 0.47454 0.47600
vn -0.00000 1.00000 -0.00000
f 16/16/6 17/17/6 18/18/6
v 0.01273 -0.01200 0.01273
vt 0.52546 0.47600
v -0.01273 -0.01200 0.01273
vt 0.52546 0.47600
v -0.00000 -0.01200 0.01800
vt 0.53600 0.47600
vn -0.00000 1.00000 -0.00000
f 19/19/7 20/20/7 21/21/7
v 0.01273 -0.01200 0.01273
vt 0.52546 0.47600
v 0.01273 -0.01200 -0.01273
vt 0.47454 0.47600
v 0.00000 -0.01200 -0.01800
vt 0.46400 0.47600
vn -0.00000 1.00000 -0.00000
f 22/22/8 23/23/8 24/24/8
v 0.01200 -0.02000 0.00000
vt 0.50000 0.46000
v 0.01273 -0.01200 -0.01273
vt 0.47454 0.47600
v 0.01800 -0.01200 0.00000
vt 0.50000 0.47600
vn 0.75939 -0.56954 -0.31455
f 25/25/9 26/26/9 27/27/9
v 0.01200 -0.02000 0.00000
vt 0.50000 0.46000
v 0.00849 -0.02000 -0.00849
vt 0.48303 0.46000
v 0.01273 -0.01200 -0.01273
vt 0.47454 0.47600
vn 0.75939 -0.56954 -0.31455
f 28/28/10 29/29/10 30/30/10
v 0.01200 -0.02000 0.00000
vt 0.50000 0.46000
v 0.01800 -0.01200 0.00000
vt 0.50000 0.47600
v 0.01273 -0.01200 0.01273
vt 0.52546 0.47600
vn 0.75939 -0.56954 0.31455
f 31/31/11 32/32/11 33/33/11
v 0.01200 -0.02000 0.00000
vt 0.50000 0.46000
v 0.01273 -0.01200 0.01273
vt 0.52546 0.47600
v 0.00849 -0.02000 0.00849
vt 0.51697 0.46000
vn 0.75939 -0.56954 0.31455
f 34/34/12 35/35/12 36/36/12
v -0.00849 -0.02000 0.00849
vt 0.51697 0.46000
v -0.01273 -0.01200 0.01273
vt 0.52546 0.47600
v -0.01800 -0.01200 0.00000
vt 0.50000 0.47600
vn -0.75939 -0.56954 0.31455
f 37/37/13 38/38/13 39/39/13
v -0.00849 -0.02000 0.00849
vt 0.51697 0.46000
v -0.01800 -0.01200 0.00000
vt 0.50000 0.47600
v -0.01200 -0.02000 0.00000
vt 0.50000 0.46000
vn -0.75939 -0.56954 0.31455
f 40/40/14 41/41/14 42/42/14
v 0.00000 -0.02000 -0.01200
vt 0.47600 0.46000
v 0.00000 -0.01200 -0.01800
vt 0.46400 0.47600
v 0.01273 -0.01200 -0.01273
vt 0.47454 0.47600
vn 0.31455 -0.56954 -0.75939
f 43/43/15 44/44/15 45/45/15
v 0.00000 -0.02000 -0.01200
vt 0.47600 0.46000
v 0.01273 -0.01200 -0.01273
vt 0.47454 0.47600
v 0.00849 -0.02000 -0.00849
vt 0.48303 0.46000
vn 0.31455 -0.56954 -0.75939
f 46/46/16 47/47/16 48/48/16
v 0.00000 -0.02000 -0.01200
vt 0.47600 0.46000
v -0.01273 -0.01200 -0.01273
vt 0.47454 0.47600
v 0.00000 -0.01200 -0.01800
vt 0.46400 0.47600
vn -0.31455 -0.56954 -0.75939
f 49/49/17 50/50/17 51/51/17
v 0.00000 -0.02000 -0.01200
vt 0.47600 0.46000
v -0.00849 -0.02000 -0.00849
vt 0.48303 0.46000
v -0.01273 -0.01200 -0.01273
vt 0.47454 0.47600
vn -0.31455 -0.56954 -0.75939
f 52/52/18 53/53/18 54/54/18
v -0.00000 -0.02000 0.01200
vt 0.52400 0.46000
v 0.00849 -0.02000 -0.00849
vt 0.48303 0.46000
v 0.01200 -0.02000 0.00000
vt 0.50000 0.46000
vn 0.00000 -1.00000 -0.00000
f 55/55/19 56/56/19 57/57/19
v -0.00000 -0.02000 0.01200
vt 0.52400 0.46000
v -0.01200 -0.02000 0.00000
vt 0.50000 0.46000
v -0.00849 -0.02000 -0.00849
vt 0.48303 0.46000
vn 0.00000 -1.00000 -0.00000
f 58/58/20 59/59/20 60/60/20
v -0.00000 -0.02000 0.01200
vt 0.52400 0.46000
v -0.00849 -0.02000 0.00849
vt 0.51697 0.46000
v -0.01200 -0.02000 0.00000
vt 0.50000 0.46000
vn 0.00000 -1.00000 -0.00000
f 61/61/21 62/62/21 63/63/21
v -0.00000 -0.02000 0.01200
vt 0.52400 0.46000
v 0.01200 -0.02000 0.00000
vt 0.50000 0.46000
v 0.00849 -0.02000 0.00849
vt 0.51697 0.46000
vn 0.00000 -1.00000 -0.00000
f 64/64/22 65/65/22 66/66/22
v -0.00000 -0.02000 0.01200
vt 0.52400 0.46000
v 0.00000 -0.02000 -0.01200
vt 0.47600 0.46000
v 0.00849 -0.02000 -0.00849
vt 0.48303 0.46000
vn 0.00000 -1.00000 -0.00000
f 67/67/23 68/68/23 69/69/23
v -0.00000 -0.02000 0.01200
vt 0.52400 0.46000
v -0.00849 -0.02000 -0.00849
vt 0.48303 0.46000
v 0.00000 -0.02000 -0.01200
vt 0.47600 0.46000
vn 0.00000 -1.00000 -0.00000
f 70/70/24 71/71/24 72/72/24
v -0.00000 -0.02000 0.01200
vt 0.52400 0.46000
v 0.00849 -0.02000 0.00849
vt 0.51697 0.46000
v 0.01273 -0.01200 0.01273
vt 0.52546 0.47600
vn 0.31455 -0.56954 0.75939
f 73/73/25 74/74/25 75/75/25
v -0.00000 -0.02000 0.01200
vt 0.52400 0.46000
v 0.01273 -0.01200 0.01273
vt 0.52546 0.47600
v -0.00000 -0.01200 0.01800
vt 0.53600 0.47600
vn 0.31455 -0.56954 0.75939
f 76/76/26 77/77/26 78/78/26
v -0.00000 -0.02000 0.01200
vt 0.52400 0.46000
v -0.00000 -0.01200 0.01800
vt 0.53600 0.47600
v -0.01273 -0.01200 0.01273
vt 0.52546 0.47600
vn -0.31455 -0.56954 0.75939
f 79/79/27 80/80/27 81/81/27
v -0.00000 -0.02000 0.01200
vt 0.52400 0.46000
v -0.01273 -0.01200 0.01273
vt 0.52546 0.47600
v -0.00849 -0.02000 0.00849
vt 0.51697 0.46000
vn -0.31455 -0.56954 0.75939
f 82/82/28 83/83/28 84/84/28
v -0.01273 0.04000 -0.01273
vt 0.47454 0.58000
v -0.01273 -0.01200 -0.01273
vt 0.47454 0.47600
v -0.01800 -0.01200 0.00000
vt 0.50000 0.47600
vn -0.92388 -0.00000 -0.38268
f 85/85/29 86/86/29 87/87/29
v -0.01273 0.04000 -0.01273
vt 0.47454 0.58000
v -0.01800 -0.01200 0.00000
vt 0.50000 0.47600
v -0.01800 0.04000 0.00000
vt 0.50000 0.58000
vn -0.92388 -0.00000 -0.38268
f 88/88/30 89/89/30 90/90/30
v 0.01273 -0.01200 0.01273
vt 0.52546 0.47600
v -0.01273 -0.01200 0.01273
vt 0.52546 0.47600
v -0.01800 -0.01200 0.00000
vt 0.50000 0.47600
vn 0.00000 -1.00000 0.00000
f 91/91/31 92/92/31 93/93/31
v 0.01273 -0.01200 0.01273
vt 0.52546 0.47600
v -0.01800 -0.01200 0.00000
vt 0.50000 0.47600
v -0.01273 -0.01200 -0.01273
vt 0.47454 0.47600
vn 0.00000 -1.00000 0.00000
f 94/94/32 95/95/32 96/96/32
v 0.01273 -0.01200 0.01273
vt 0.52546 0.47600
v 0.01273 -0.01200 -0.01273
vt 0.47454 0.47600
v 0.01800 -0.01200 0.00000
vt 0.50000 0.47600
vn 0.00000 -1.00000 0.00000
f 97/97/33 98/98/33 99/99/33
v 0.01273 -0.01200 0.01273
vt 0.52546 0.47600
v -0.01273 -0.01200 -0.01273
vt 0.47454 0.47600
v 0.00000 -0.01200 -0.01800
vt 0.46400 0.47600
vn 0.00000 -1.00000 0.00000
f 100/100/34 101/101/34 102/102/34
v 0.01273 -0.01200 0.01273
vt 0.52546 0.47600
v 0.00000 -0.01200 -0.01800
vt 0.46400 0.47600
v 0.01273 -0.01200 -0.01273
vt 0.47454 0.47600
vn 0.00000 -1.00000 0.00000
f 103/103/35 104/104/35 105/105/35
v 0.01273 -0.01200 0.01273
vt 0.52546 0.47600
v -0.00000 -0.01200 0.01800
vt 0.53600 0.47600
v -0.01273 -0.01200 0.01273
vt 0.52546 0.47600
vn 0.00000 -1.00000 0.00000
f 106/106/36 107/107/36 108/108/36
v 0.01800 0.04000 0.00000
vt 0.50000 0.58000
v 0.01800 -0.01200 0.00000
vt 0.50000 0.47600
v 0.01273 -0.01200 -0.01273
vt 0.47454 0.47600
vn 0.92388 0.00000 -0.38268
f 109/109/37 110/110/37 111/111/37
v 0.01800 0.04000 0.00000
vt 0.50000 0.58000
v 0.01273 -0.01200 -0.01273
vt 0.47454 0.47600
v 0.01273 0.04000 -0.01273
vt 0.47454 0.58000
vn 0.92388 0.00000 -0.38268
f 112/112/38 113/113/38 114/114/38
v 0.01800 0.04000 0.00000
vt 0.50000 0.58000
v 0.01273 -0.01200 0.01273
vt 0.52546 0.47600
v 0.01800 -0.01200 0.00000
vt 0.50000 0.47600
vn 0.92388 -0.00000 0.38268
f 115/115/39 116/116/39 117/117/39
v 0.01800 0.04000 0.00000
vt 0.50000 0.58000
v 0.01273 0.04000 0.01273
vt 0.52546 0.58000
v 0.01273 -0.01200 0.01273
vt 0.52546 0.47600
vn 0.92388 -0.00000 0.38268
f 118/118/40 119/119/40 120/120/40
v -0.01273 0.04000 0.01273
vt 0.52546 0.58000
v -0.01800 -0.01200 0.00000
vt 0.50000 0.47600
v -0.01273 -0.01200 0.01273
vt 0.52546 0.47600
vn -0.92388 0.00000 0.38268
f 121/121/41 122/122/41 123/123/41
v -0.01273 0.04000 0.01273
vt 0.52546 0.58000
v -0.01800 0.04000 0.00000
vt 0.50000 0.58000
v -0.01800 -0.01200 0.00000
vt 0.50000 0.47600
vn -0.92388 0.00000 0.38268
f 124/124/42 125/125/42 126/126/42
v 0.00000 0.04000 -0.01800
vt 0.46400 0.58000
v 0.01273 -0.01200 -0.01273
vt 0.47454 0.47600
v 0.00000 -0.01200 -0.01800
vt 0.46400 0.47600
vn 0.38268 0.00000 -0.92388
f 127/127/43 128/128/43 129/129/43
v 0.00000 0.04000 -0.01800
vt 0.46400 0.58000
v 0.01273 0.04000 -0.01273
vt 0.47454 0.58000
v 0.01273 -0.01200 -0.01273
vt 0.47454 0.47600
vn 0.38268 0.00000 -0.92388
f 130/130/44 131/131/44 132/132/44
v 0.00000 0.04000 -0.01800
vt 0.46400 0.58000
v 0.00000 -0.01200 -0.01800
vt 0.46400 0.47600
v -0.01273 -0.01200 -0.01273
vt 0.47454 0.47600
vn -0.38268 -0.00000 -0.92388
f 133/133/45 134/134/45 135/135/45
v 0.00000 0.04000 -0.01800
vt 0.46400 0.58000
v -0.01273 -0.01200 -0.01273
vt 0.47454 0.47600
v -0.01273 0.04000 -0.01273
vt 0.47454 0.58000
vn -0.38268 -0.00000 -0.92388
f 136/136/46 137/137/46 138/138/46
v -0.00000 0.04000 0.01800
vt 0.53600 0.58000
v 0.01800 0.04000 0.00000
vt 0.50000 0.58000
v 0.01273 0.04000 -0.01273
vt 0.47454 0.58000
vn -0.00000 1.00000 0.00000
f 139/139/47 140/140/47 141/141/47
v -0.00000 0.04000 0.01800
vt 0.53600 0.58000
v -0.01273 0.04000 -0.01273
vt 0.47454 0.58000
v -0.01800 0.04000 0.00000
vt 0.50000 0.58000
vn -0.00000 1.00000 0.00000
f 142/142/48 143/143/48 144/144/48
v -0.00000 0.04000 0.01800
vt 0.53600 0.58000
v -0.01800 0.04000 0.00000
vt 0.50000 0.58000
v -0.01273 0.04000 0.01273
vt 0.52546 0.58000
vn -0.00000 1.00000 0.00000
f 145/145/49 146/146/49 147/147/49
v -0.00000 0.04000 0.01800
vt 0.53600 0.58000
v 0.01273 0.04000 0.01273
vt 0.52546 0.58000
v 0.01800 0.04000 0.00000
vt 0.50000 0.58000
vn -0.00000 1.00000 0.00000
f 148/148/50 149/149/50 150/150/50
v -0.00000 0.04000 0.01800
vt 0.53600 0.58000
v 0.01273 0.04000 -0.01273
vt 0.47454 0.58000
v 0.00000 0.04000 -0.01800
vt 0.46400 0.58000
vn -0.00000 1.00000 0.00000
f 151/151/51 152/152/51 153/153/51
v -0.00000 0.04000 0.01800
vt 0.53600 0.58000
v 0.00000 0.04000 -0.01800
vt 0.46400 0.58000
v -0.01273 0.04000 -0.01273
vt 0.47454 0.58000
vn -0.00000 1.00000 0.00000
f 154/154/52 155/155/52 156/156/52
v -0.00000 0.04000 0.01800
vt 0.53600 0.58000
v 0.01273 -0.01200 0.01273
vt 0.52546 0.47600
v 0.01273 0.04000 0.01273
vt 0.52546 0.58000
vn 0.38268 0.00000 0.92388
f 157/157/53 158/158/53 159/159/53
v -0.00000 0.04000 0.01800
vt 0.53600 0.58000
v -0.00000 -0.01200 0.01800
vt 0.53600 0.47600
v 0.01273 -0.01200 0.01273
vt 0.52546 0.47600
vn 0.38268 0.00000 0.92388
f 160/160/54 161/161/54 162/162/54
v -0.00000 0.04000 0.01800
vt 0.53600 0.58000
v -0.01273 -0.01200 0.01273
vt 0.52546 0.47600
v -0.00000 -0.01200 0.01800
vt 0.53600 0.47600
vn -0.38268 0.00000 0.92388
f 163/163/55 164/164/55 165/165/55
v -0.00000 0.04000 0.01800
vt 0.53600 0.58000
v -0.01273 0.04000 0.01273
vt 0.52546 0.58000
v -0.01273 -0.01200 0.01273
vt 0.52546 0.47600
vn -0.38268 0.00000 0.92388
f 166/166/56 167/167/56 168/168/56
o Ash
usemtl Ash
v -0.01096 1.97000 -0.01096
vt 0.47808 4.44000
v -0.01131 0.04000 -0.01131
vt 0.47737 0.58000
v -0.01600 0.04000 0.00000
vt 0.50000 0.58000
vn -0.92388 0.00024 -0.38268
f 169/169/57 170/170/57 171/171/57
v -0.01096 1.97000 -0.01096
vt 0.47808 4.44000
v -0.01600 0.04000 0.00000
vt 0.50000 0.58000
v -0.01550 1.97000 0.00000
vt 0.50000 4.44000
vn -0.92388 0.00024 -0.38268
f 172/172/58 173/173/58 174/174/58
v 0.01131 0.04000 0.01131
vt 0.52263 0.58000
v -0.01131 0.04000 0.01131
vt 0.52263 0.58000
v -0.01600 0.04000 0.00000
vt 0.50000 0.58000
vn 0.00000 -1.00000 0.00000
f 175/175/59 176/176/59 177/177/59
v 0.01131 0.04000 0.01131
vt 0.52263 0.58000
v -0.01600 0.04000 0.00000
vt 0.50000 0.58000
v -0.01131 0.04000 -0.01131
vt 0.47737 0.58000
vn 0.00000 -1.00000 0.00000
f 178/178/60 179/179/60 180/180/60
v 0.01131 0.04000 0.01131
vt 0.52263 0.58000
v 0.01131 0.04000 -0.01131
vt 0.47737 0.58000
v 0.01600 0.04000 0.00000
vt 0.50000 0.58000
vn 0.00000 -1.00000 0.00000
f 181/181/61 182/182/61 183/183/61
v 0.01131 0.04000 0.01131
vt 0.52263 0.58000
v -0.01131 0.04000 -0.01131
vt 0.47737 0.58000
v 0.00000 0.04000 -0.01600
vt 0.46800 0.58000
vn 0.00000 -1.00000 0.00000
f 184/184/62 185/185/62 186/186/62
v 0.01131 0.04000 0.01131
vt 0.52263 0.58000
v 0.00000 0.04000 -0.01600
vt 0.46800 0.58000
v 0.01131 0.04000 -0.01131
vt 0.47737 0.58000
vn 0.00000 -1.00000 0.00000
f 187/187/63 188/188/63 189/189/63
v 0.01131 0.04000 0.01131
vt 0.52263 0.58000
v -0.00000 0.04000 0.01600
vt 0.53200 0.58000
v -0.01131 0.04000 0.01131
vt 0.52263 0.58000
vn 0.00000 -1.00000 0.00000
f 190/190/64 191/191/64 192/192/64
v 0.01550 1.97000 0.00000
vt 0.50000 4.44000
v 0.01600 0.04000 0.00000
vt 0.50000 0.58000
v 0.01131 0.04000 -0.01131
vt 0.47737 0.58000
vn 0.92388 0.00024 -0.38268
f 193/193/65 194/194/65 195/195/65
v 0.01550 1.97000 0.00000
vt 0.50000 4.44000
v 0.01131 0.04000 -0.01131
vt 0.47737 0.58000
v 0.01096 1.97000 -0.01096
vt 0.47808 4.44000
vn 0.92388 0.00024 -0.38268
f 196/196/66 197/197/66 198/198/66
v 0.01550 1.97000 0.00000
vt 0.50000 4.44000
v 0.01131 0.04000 0.01131
vt 0.52263 0.58000
v 0.01600 0.04000 0.00000
vt 0.50000 0.58000
vn 0.92388 0.00024 0.38268
f 199/199/67 200/200/67 201/201/67
v 0.01550 1.97000 0.00000
vt 0.50000 4.44000
v 0.01096 1.97000 0.01096
vt 0.52192 4.44000
v 0.01131 0.04000 0.01131
vt 0.52263 0.58000
vn 0.92388 0.00024 0.38268
f 202/202/68 203/203/68 204/204/68
v -0.01096 1.97000 0.01096
vt 0.52192 4.44000
v -0.01600 0.04000 0.00000
vt 0.50000 0.58000
v -0.01131 0.04000 0.01131
vt 0.52263 0.58000
vn -0.92388 0.00024 0.38268
f 205/205/69 206/206/69 207/207/69
v -0.01096 1.97000 0.01096
vt 0.52192 4.44000
v -0.01550 1.97000 0.00000
vt 0.50000 4.44000
v -0.01600 0.04000 0.00000
vt 0.50000 0.58000
vn -0.92388 0.00024 0.38268
f 208/208/70 209/209/70 210/210/70
v 0.00000 1.97000 -0.01550
vt 0.46900 4.44000
v 0.01131 0.04000 -0.01131
vt 0.47737 0.58000
v 0.00000 0.04000 -0.01600
vt 0.46800 0.58000
vn 0.38268 0.00024 -0.92388
f 211/211/71 212/212/71 213/213/71
v 0.00000 1.97000 -0.01550
vt 0.46900 4.44000
v 0.01096 1.97000 -0.01096
vt 0.47808 4.44000
v 0.01131 0.04000 -0.01131
vt 0.47737 0.58000
vn 0.38268 0.00024 -0.92388
f 214/214/72 215/215/72 216/216/72
v 0.00000 1.97000 -0.01550
vt 0.46900 4.44000
v 0.00000 0.04000 -0.01600
vt 0.46800 0.58000
v -0.01131 0.04000 -0.01131
vt 0.47737 0.58000
vn -0.38268 0.00024 -0.92388
f 217/217/73 218/218/73 219/219/73
v 0.00000 1.97000 -0.01550
vt 0.46900 4.44000
v -0.01131 0.04000 -0.01131
vt 0.47737 0.58000
v -0.01096 1.97000 -0.01096
vt 0.47808 4.44000
vn -0.38268 0.00024 -0.92388
f 220/220/74 221/221/74 222/222/74
v -0.00000 1.97000 0.01550
vt 0.53100 4.44000
v 0.01550 1.97000 0.00000
vt 0.50000 4.44000
v 0.01096 1.97000 -0.01096
vt 0.47808 4.44000
vn -0.00000 1.00000 0.00000
f 223/223/75 224/224/75 225/225/75
v -0.00000 1.97000 0.01550
vt 0.53100 4.44000
v -0.01096 1.97000 -0.01096
vt 0.47808 4.44000
v -0.01550 1.97000 0.00000
vt 0.50000 4.44000
vn -0.00000 1.00000 0.00000
f 226/226/76 227/227/76 228/228/76
v -0.00000 1.97000 0.01550
vt 0.53100 4.44000
v -0.01550 1.97000 0.00000
vt 0.50000 4.44000
v -0.01096 1.97000 0.01096
vt 0.52192 4.44000
vn -0.00000 1.00000 0.00000
f 229/229/77 230/230/77 231/231/77
v -0.00000 1.97000 0.01550
vt 0.53100 4.44000
v 0.01096 1.97000 0.01096
vt 0.52192 4.44000
v 0.01550 1.97000 0.00000
vt 0.50000 4.44000
vn -0.00000 1.00000 0.00000
f 232/232/78 233/233/78 234/234/78
v -0.00000 1.97000 0.01550
vt 0.53100 4.44000
v 0.01096 1.97000 -0.01096
vt 0.47808 4.44000
v 0.00000 1.97000 -0.01550
vt 0.46900 4.44000
vn -0.00000 1.00000 0.00000
f 235/235/79 236/236/79 237/237/79
v -0.00000 1.97000 0.01550
vt 0.53100 4.44000
v 0.00000 1.97000 -0.01550
vt 0.46900 4.44000
v -0.01096 1.97000 -0.01096
vt 0.47808 4.44000
vn -0.00000 1.00000 0.00000
f 238/238/80 239/239/80 240/240/80
v -0.00000 1.97000 0.01550
vt 0.53100 4.44000
v 0.01131 0.04000 0.01131
vt 0.52263 0.58000
v 0.01096 1.97000 0.01096
vt 0.52192 4.44000
vn 0.38268 0.00024 0.92388
f 241/241/81 242/242/81 243/243/81
v -0.00000 1.97000 0.01550
vt 0.53100 4.44000
v -0.00000 0.04000 0.01600
vt 0.53200 0.58000
v 0.01131 0.04000 0.01131
vt 0.52263 0.58000
vn 0.38268 0.00024 0.92388
f 244/244/82 245/245/82 246/246/82
v -0.00000 1.97000 0.01550
vt 0.53100 4.44000
v -0.01131 0.04000 0.01131
vt 0.52263 0.58000
v -0.00000 0.04000 0.01600
vt 0.53200 0.58000
vn -0.38268 0.00024 0.92388
f 247/247/83 248/248/83 249/249/83
v -0.00000 1.97000 0.01550
vt 0.53100 4.44000
v -0.01096 1.97000 0.01096
vt 0.52192 4.44000
v -0.01131 0.04000 0.01131
vt 0.52263 0.58000
vn -0.38268 0.00024 0.92388
f 250/250/84 251/251/84 252/252/84
o Brass
usemtl Brass
v 0.00000 1.96000 -0.01900
vt 0.46200 4.42000
v 0.00000 1.97500 -0.02400
vt 0.45200 4.45000
v 0.01697 1.97500 -0.01697
vt 0.46606 4.45000
vn 0.36573 -0.29432 -0.88296
f 253/253/85 254/254/85 255/255/85
v 0.00000 1.96000 -0.01900
vt 0.46200 4.42000
v 0.01697 1.97500 -0.01697
vt 0.46606 4.45000
v 0.01344 1.96000 -0.01344
vt 0.47313 4.42000
vn 0.36573 -0.29432 -0.88296
f 256/256/86 257/257/86 258/258/86
v 0.01697 1.97500 0.01697
vt 0.53394 4.45000
v 0.02400 1.97500 0.00000
vt 0.50000 4.45000
v 0.01697 1.97500 -0.01697
vt 0.46606 4.45000
vn -0.00000 1.00000 -0.00000
f 259/259/87 260/260/87 261/261/87
v 0.01697 1.97500 0.01697
vt 0.53394 4.45000
v -0.02400 1.97500 0.00000
vt 0.50000 4.45000
v -0.01697 1.97500 0.01697
vt 0.53394 4.45000
vn -0.00000 1.00000 -0.00000
f 262/262/88 263/263/88 264/264/88
v 0.01697 1.97500 0.01697
vt 0.53394 4.45000
v -0.01697 1.97500 -0.01697
vt 0.46606 4.45000
v -0.02400 1.97500 0.00000
vt 0.50000 4.45000
vn -0.00000 1.00000 -0.00000
f 265/265/89 266/266/89 267/267/89
v 0.01697 1.97500 0.01697
vt 0.53394 4.45000
v 0.00000 1.97500 -0.02400
vt 0.45200 4.45000
v -0.01697 1.97500 -0.01697
vt 0.46606 4.45000
vn -0.00000 1.00000 -0.00000
f 268/268/90 269/269/90 270/270/90
v 0.01697 1.97500 0.01697
vt 0.53394 4.45000
v -0.01697 1.97500 0.01697
vt 0.53394 4.45000
v -0.00000 1.97500 0.02400
vt 0.54800 4.45000
vn -0.00000 1.00000 -0.00000
f 271/271/91 272/272/91 273/273/91
v 0.01697 1.97500 0.01697
vt 0.53394 4.45000
v 0.01697 1.97500 -0.01697
vt 0.46606 4.45000
v 0.00000 1.97500 -0.02400
vt 0.45200 4.45000
vn -0.00000 1.00000 -0.00000
f 274/274/92 275/275/92 276/276/92
v 0.01900 1.96000 0.00000
vt 0.50000 4.42000
v 0.01697 1.97500 -0.01697
vt 0.46606 4.45000
v 0.02400 1.97500 0.00000
vt 0.50000 4.45000
vn 0.88296 -0.29432 -0.36573
f 277/277/93 278/278/93 279/279/93
v 0.01900 1.96000 0.00000
vt 0.50000 4.42000
v 0.01344 1.96000 -0.01344
vt 0.47313 4.42000
v 0.01697 1.97500 -0.01697
vt 0.46606 4.45000
vn 0.88296 -0.29432 -0.36573
f 280/280/94 281/281/94 282/282/94
v 0.01900 1.96000 0.00000
vt 0.50000 4.42000
v 0.02400 1.97500 0.00000
vt 0.50000 4.45000
v 0.01697 1.97500 0.01697
vt 0.53394 4.45000
vn 0.88296 -0.29432 0.36573
f 283/283/95 284/284/95 285/285/95
v 0.01900 1.96000 0.00000
vt 0.50000 4.42000
v 0.01697 1.97500 0.01697
vt 0.53394 4.45000
v 0.01344 1.96000 0.01344
vt 0.52687 4.42000
vn 0.88296 -0.29432 0.36573
f 286/286/96 287/287/96 288/288/96
v -0.00000 1.96000 0.01900
vt 0.53800 4.42000
v 0.01344 1.96000 0.01344
vt 0.52687 4.42000
v 0.01697 1.97500 0.01697
vt 0.53394 4.45000
vn 0.36573 -0.29432 0.88296
f 289/289/97 290/290/97 291/291/97
v -0.00000 1.96000 0.01900
vt 0.53800 4.42000
v 0.01697 1.97500 0.01697
vt 0.53394 4.45000
v -0.00000 1.97500 0.02400
vt 0.54800 4.45000
vn 0.36573 -0.29432 0.88296
f 292/292/98 293/293/98 294/294/98
v -0.01344 1.96000 -0.01344
vt 0.47313 4.42000
v -0.02400 1.97500 0.00000
vt 0.50000 4.45000
v -0.01697 1.97500 -0.01697
vt 0.46606 4.45000
vn -0.88296 -0.29432 -0.36573
f 295/295/99 296/296/99 297/297/99
v -0.01344 1.96000 -0.01344
vt 0.47313 4.42000
v -0.01900 1.96000 0.00000
vt 0.50000 4.42000
v -0.02400 1.97500 0.00000
vt 0.50000 4.45000
vn -0.88296 -0.29432 -0.36573
f 298/298/100 299/299/100 300/300/100
v -0.01344 1.96000 -0.01344
vt 0.47313 4.42000
v -0.01697 1.97500 -0.01697
vt 0.46606 4.45000
v 0.00000 1.97500 -0.02400
vt 0.45200 4.45000
vn -0.36573 -0.29432 -0.88296
f 301/301/101 302/302/101 303/303/101
v -0.01344 1.96000 -0.01344
vt 0.47313 4.42000
v 0.00000 1.97500 -0.02400
vt 0.45200 4.45000
v 0.00000 1.96000 -0.01900
vt 0.46200 4.42000
vn -0.36573 -0.29432 -0.88296
f 304/304/102 305/305/102 306/306/102
v -0.01344 1.96000 0.01344
vt 0.52687 4.42000
v 0.01344 1.96000 -0.01344
vt 0.47313 4.42000
v 0.01900 1.96000 0.00000
vt 0.50000 4.42000
vn 0.00000 -1.00000 -0.00000
f 307/307/103 308/308/103 309/309/103
v -0.01344 1.96000 0.01344
vt 0.52687 4.42000
v 0.01344 1.96000 0.01344
vt 0.52687 4.42000
v -0.00000 1.96000 0.01900
vt 0.53800 4.42000
vn 0.00000 -1.00000 -0.00000
f 310/310/104 311/311/104 312/312/104
v -0.01344 1.96000 0.01344
vt 0.52687 4.42000
v 0.00000 1.96000 -0.01900
vt 0.46200 4.42000
v 0.01344 1.96000 -0.01344
vt 0.47313 4.42000
vn 0.00000 -1.00000 -0.00000
f 313/313/105 314/314/105 315/315/105
v -0.01344 1.96000 0.01344
vt 0.52687 4.42000
v 0.01900 1.96000 0.00000
vt 0.50000 4.42000
v 0.01344 1.96000 0.01344
vt 0.52687 4.42000
vn 0.00000 -1.00000 -0.00000
f 316/316/106 317/317/106 318/318/106
v -0.01344 1.96000 0.01344
vt 0.52687 4.42000
v -0.01900 1.96000 0.00000
vt 0.50000 4.42000
v -0.01344 1.96000 -0.01344
vt 0.47313 4.42000
vn 0.00000 -1.00000 -0.00000
f 319/319/107 320/320/107 321/321/107
v -0.01344 1.96000 0.01344
vt 0.52687 4.42000
v -0.01344 1.96000 -0.01344
vt 0.47313 4.42000
v 0.00000 1.96000 -0.01900
vt 0.46200 4.42000
vn 0.00000 -1.00000 -0.00000
f 322/322/108 323/323/108 324/324/108
v -0.01344 1.96000 0.01344
vt 0.52687 4.42000
v -0.01697 1.97500 0.01697
vt 0.53394 4.45000
v -0.02400 1.97500 0.00000
vt 0.50000 4.45000
vn -0.88296 -0.29432 0.36573
f 325/325/109 326/326/109 327/327/109
v -0.01344 1.96000 0.01344
vt 0.52687 4.42000
v -0.02400 1.97500 0.00000
vt 0.50000 4.45000
v -0.01900 1.96000 0.00000
vt 0.50000 4.42000
vn -0.88296 -0.29432 0.36573
f 328/328/110 329/329/110 330/330/110
v -0.01344 1.96000 0.01344
vt 0.52687 4.42000
v -0.00000 1.97500 0.02400
vt 0.54800 4.45000
v -0.01697 1.97500 0.01697
vt 0.53394 4.45000
vn -0.36573 -0.29432 0.88296
f 331/331/111 332/332/111 333/333/111
v -0.01344 1.96000 0.01344
vt 0.52687 4.42000
v -0.00000 1.96000 0.01900
vt 0.53800 4.42000
v -0.00000 1.97500 0.02400
vt 0.54800 4.45000
vn -0.36573 -0.29432 0.88296
f 334/334/112 335/335/112 336/336/112
v 0.00000 2.02000 -0.02400
vt 0.45200 4.54000
v 0.01697 1.97500 -0.01697
vt 0.46606 4.45000
v 0.00000 1.97500 -0.02400
vt 0.45200 4.45000
vn 0.38268 0.00000 -0.92388
f 337/337/113 338/338/113 339/339/113
v 0.00000 2.02000 -0.02400
vt 0.45200 4.54000
v 0.01697 2.02000 -0.01697
vt 0.46606 4.54000
v 0.01697 1.97500 -0.01697
vt 0.46606 4.45000
vn 0.38268 0.00000 -0.92388
f 340/340/114 341/341/114 342/342/114
v 0.01697 1.97500 0.01697
vt 0.53394 4.45000
v -0.01697 1.97500 0.01697
vt 0.53394 4.45000
v -0.02400 1.97500 0.00000
vt 0.50000 4.45000
vn 0.00000 -1.00000 0.00000
f 343/343/115 344/344/115 345/345/115
v 0.01697 1.97500 0.01697
vt 0.53394 4.45000
v -0.02400 1.97500 0.00000
vt 0.50000 4.45000
v -0.01697 1.97500 -0.01697
vt 0.46606 4.45000
vn 0.00000 -1.00000 0.00000
f 346/346/116 347/347/116 348/348/116
v 0.01697 1.97500 0.01697
vt 0.53394 4.45000
v 0.01697 1.97500 -0.01697
vt 0.46606 4.45000
v 0.02400 1.97500 0.00000
vt 0.50000 4.45000
vn 0.00000 -1.00000 0.00000
f 349/349/117 350/350/117 351/351/117
v 0.01697 1.97500 0.01697
vt 0.53394 4.45000
v -0.01697 1.97500 -0.01697
vt 0.46606 4.45000
v 0.00000 1.97500 -0.02400
vt 0.45200 4.45000
vn 0.00000 -1.00000 0.00000
f 352/352/118 353/353/118 354/354/118
v 0.01697 1.97500 0.01697
vt 0.53394 4.45000
v 0.00000 1.97500 -0.02400
vt 0.45200 4.45000
v 0.01697 1.97500 -0.01697
vt 0.46606 4.45000
vn 0.00000 -1.00000 0.00000
f 355/355/119 356/356/119 357/357/119
v 0.01697 1.97500 0.01697
vt 0.53394 4.45000
v -0.00000 1.97500 0.02400
vt 0.54800 4.45000
v -0.01697 1.97500 0.01697
vt 0.53394 4.45000
vn 0.00000 -1.00000 0.00000
f 358/358/120 359/359/120 360/360/120
v 0.02400 2.02000 0.00000
vt 0.50000 4.54000
v 0.02400 1.97500 0.00000
vt 0.50000 4.45000
v 0.01697 1.97500 -0.01697
vt 0.46606 4.45000
vn 0.92388 0.00000 -0.38268
f 361/361/121 362/362/121 363/363/121
v 0.02400 2.02000 0.00000
vt 0.50000 4.54000
v 0.01697 1.97500 -0.01697
vt 0.46606 4.45000
v 0.01697 2.02000 -0.01697
vt 0.46606 4.54000
vn 0.92388 0.00000 -0.38268
f 364/364/122 365/365/122 366/366/122
v 0.02400 2.02000 0.00000
vt 0.50000 4.54000
v 0.01697 1.97500 0.01697
vt 0.53394 4.45000
v 0.02400 1.97500 0.00000
vt 0.50000 4.45000
vn 0.92388 -0.00000 0.38268
f 367/367/123 368/368/123 369/369/123
v 0.02400 2.02000 0.00000
vt 0.50000 4.54000
v 0.01697 2.02000 0.01697
vt 0.53394 4.54000
v 0.01697 1.97500 0.01697
vt 0.53394 4.45000
vn 0.92388 -0.00000 0.38268
f 370/370/124 371/371/124 372/372/124
v -0.00000 2.02000 0.02400
vt 0.54800 4.54000
v 0.01697 1.97500 0.01697
vt 0.53394 4.45000
v 0.01697 2.02000 0.01697
vt 0.53394 4.54000
vn 0.38268 0.00000 0.92388
f 373/373/125 374/374/125 375/375/125
v -0.00000 2.02000 0.02400
vt 0.54800 4.54000
v -0.00000 1.97500 0.02400
vt 0.54800 4.45000
v 0.01697 1.97500 0.01697
vt 0.53394 4.45000
vn 0.38268 0.00000 0.92388
f 376/376/126 377/377/126 378/378/126
v -0.01697 2.02000 -0.01697
vt 0.46606 4.54000
v -0.01697 1.97500 -0.01697
vt 0.46606 4.45000
v -0.02400 1.97500 0.00000
vt 0.50000 4.45000
vn -0.92388 -0.00000 -0.38268
f 379/379/127 380/380/127 381/381/127
v -0.01697 2.02000 -0.01697
vt 0.46606 4.54000
v -0.02400 1.97500 0.00000
vt 0.50000 4.45000
v -0.02400 2.02000 0.00000
vt 0.50000 4.54000
vn -0.92388 -0.00000 -0.38268
f 382/382/128 383/383/128 384/384/128
v -0.01697 2.02000 -0.01697
vt 0.46606 4.54000
v 0.00000 1.97500 -0.02400
vt 0.45200 4.45000
v -0.01697 1.97500 -0.01697
vt 0.46606 4.45000
vn -0.38268 -0.00000 -0.92388
f 385/385/129 386/386/129 387/387/129
v -0.01697 2.02000 -0.01697
vt 0.46606 4.54000
v 0.00000 2.02000 -0.02400
vt 0.45200 4.54000
v 0.00000 1.97500 -0.02400
vt 0.45200 4.45000
vn -0.38268 -0.00000 -0.92388
f 388/388/130 389/389/130 390/390/130
v -0.01697 2.02000 0.01697
vt 0.53394 4.54000
v 0.02400 2.02000 0.00000
vt 0.50000 4.54000
v 0.01697 2.02000 -0.01697
vt 0.46606 4.54000
vn -0.00000 1.00000 0.00000
f 391/391/131 392/392/131 393/393/131
v -0.01697 2.02000 0.01697
vt 0.53394 4.54000
v -0.00000 2.02000 0.02400
vt 0.54800 4.54000
v 0.01697 2.02000 0.01697
vt 0.53394 4.54000
vn -0.00000 1.00000 0.00000
f 394/394/132 395/395/132 396/396/132
v -0.01697 2.02000 0.01697
vt 0.53394 4.54000
v 0.01697 2.02000 -0.01697
vt 0.46606 4.54000
v 0.00000 2.02000 -0.02400
vt 0.45200 4.54000
vn -0.00000 1.00000 0.00000
f 397/397/133 398/398/133 399/399/133
v -0.01697 2.02000 0.01697
vt 0.53394 4.54000
v 0.01697 2.02000 0.01697
vt 0.53394 4.54000
v 0.02400 2.02000 0.00000
vt 0.50000 4.54000
vn -0.00000 1.00000 0.00000
f 400/400/134 401/401/134 402/402/134
v -0.01697 2.02000 0.01697
vt 0.53394 4.54000
v -0.01697 2.02000 -0.01697
vt 0.46606 4.54000
v -0.02400 2.02000 0.00000
vt 0.50000 4.54000
vn -0.00000 1.00000 0.00000
f 403/403/135 404/404/135 405/405/135
v -0.01697 2.02000 0.01697
vt 0.53394 4.54000
v 0.00000 2.02000 -0.02400
vt 0.45200 4.54000
v -0.01697 2.02000 -0.01697
vt 0.46606 4.54000
vn -0.00000 1.00000 0.00000
f 406/406/136 407/407/136 408/408/136
v -0.01697 2.02000 0.01697
vt 0.53394 4.54000
v -0.02400 1.97500 0.00000
vt 0.50000 4.45000
v -0.01697 1.97500 0.01697
vt 0.53394 4.45000
vn -0.92388 0.00000 0.38268
f 409/409/137 410/410/137 411/411/137
v -0.01697 2.02000 0.01697
vt 0.53394 4.54000
v -0.02400 2.02000 0.00000
vt 0.50000 4.54000
v -0.02400 1.97500 0.00000
vt 0.50000 4.45000
vn -0.92388 0.00000 0.38268
f 412/412/138 413/413/138 414/414/138
v -0.01697 2.02000 0.01697
vt 0.53394 4.54000
v -0.01697 1.97500 0.01697
vt 0.53394 4.45000
v -0.00000 1.97500 0.02400
vt 0.54800 4.45000
vn -0.38268 0.00000 0.92388
f 415/415/139 416/416/139 417/417/139
v -0.01697 2.02000 0.01697
vt 0.53394 4.54000
v -0.00000 1.97500 0.02400
vt 0.54800 4.45000
v -0.00000 2.02000 0.02400
vt 0.54800 4.54000
vn -0.38268 0.00000 0.92388
f 418/418/140 419/419/140 420/420/140
v 0.00000 2.03500 -0.01800
vt 0.46400 4.57000
v 0.01697 2.02000 -0.01697
vt 0.46606 4.54000
v 0.00000 2.02000 -0.02400
vt 0.45200 4.54000
vn 0.35896 0.34664 -0.86660
f 421/421/141 422/422/141 423/423/141
v 0.00000 2.03500 -0.01800
vt 0.46400 4.57000
v 0.01273 2.03500 -0.01273
vt 0.47454 4.57000
v 0.01697 2.02000 -0.01697
vt 0.46606 4.54000
vn 0.35896 0.34664 -0.86660
f 424/424/142 425/425/142 426/426/142
v 0.01697 2.02000 0.01697
vt 0.53394 4.54000
v 0.01697 2.02000 -0.01697
vt 0.46606 4.54000
v 0.02400 2.02000 0.00000
vt 0.50000 4.54000
vn 0.00000 -1.00000 0.00000
f 427/427/143 428/428/143 429/429/143
v 0.01697 2.02000 0.01697
vt 0.53394 4.54000
v -0.01697 2.02000 0.01697
vt 0.53394 4.54000
v -0.02400 2.02000 0.00000
vt 0.50000 4.54000
vn 0.00000 -1.00000 0.00000
f 430/430/144 431/431/144 432/432/144
v 0.01697 2.02000 0.01697
vt 0.53394 4.54000
v -0.02400 2.02000 0.00000
vt 0.50000 4.54000
v -0.01697 2.02000 -0.01697
vt 0.46606 4.54000
vn 0.00000 -1.00000 0.00000
f 433/433/145 434/434/145 435/435/145
v 0.01697 2.02000 0.01697
vt 0.53394 4.54000
v -0.01697 2.02000 -0.01697
vt 0.46606 4.54000
v 0.00000 2.02000 -0.02400
vt 0.45200 4.54000
vn 0.00000 -1.00000 0.00000
f 436/436/146 437/437/146 438/438/146
v 0.01697 2.02000 0.01697
vt 0.53394 4.54000
v -0.00000 2.02000 0.02400
vt 0.54800 4.54000
v -0.01697 2.02000 0.01697
vt 0.53394 4.54000
vn 0.00000 -1.00000 0.00000
f 439/439/147 440/440/147 441/441/147
v 0.01697 2.02000 0.01697
vt 0.53394 4.54000
v 0.00000 2.02000 -0.02400
vt 0.45200 4.54000
v 0.01697 2.02000 -0.01697
vt 0.46606 4.54000
vn 0.00000 -1.00000 0.00000
f 442/442/148 443/443/148 444/444/148
v 0.01800 2.03500 0.00000
vt 0.50000 4.57000
v 0.02400 2.02000 0.00000
vt 0.50000 4.54000
v 0.01697 2.02000 -0.01697
vt 0.46606 4.54000
vn 0.86660 0.34664 -0.35896
f 445/445/149 446/446/149 447/447/149
v 0.01800 2.03500 0.00000
vt 0.50000 4.57000
v 0.01697 2.02000 -0.01697
vt 0.46606 4.54000
v 0.01273 2.03500 -0.01273
vt 0.47454 4.57000
vn 0.86660 0.34664 -0.35896
f 448/448/150 449/449/150 450/450/150
v 0.01800 2.03500 0.00000
vt 0.50000 4.57000
v 0.01697 2.02000 0.01697
vt 0.53394 4.54000
v 0.02400 2.02000 0.00000
vt 0.50000 4.54000
vn 0.86660 0.34664 0.35896
f 451/451/151 452/452/151 453/453/151
v 0.01800 2.03500 0.00000
vt 0.50000 4.57000
v 0.01273 2.03500 0.01273
vt 0.52546 4.57000
v 0.01697 2.02000 0.01697
vt 0.53394 4.54000
vn 0.86660 0.34664 0.35896
f 454/454/152 455/455/152 456/456/152
v -0.00000 2.03500 0.01800
vt 0.53600 4.57000
v 0.01697 2.02000 0.01697
vt 0.53394 4.54000
v 0.01273 2.03500 0.01273
vt 0.52546 4.57000
vn 0.35896 0.34664 0.86660
f 457/457/153 458/458/153 459/459/153
v -0.00000 2.03500 0.01800
vt 0.53600 4.57000
v -0.00000 2.02000 0.02400
vt 0.54800 4.54000
v 0.01697 2.02000 0.01697
vt 0.53394 4.54000
vn 0.35896 0.34664 0.86660
f 460/460/154 461/461/154 462/462/154
v -0.01273 2.03500 -0.01273
vt 0.47454 4.57000
v -0.01697 2.02000 -0.01697
vt 0.46606 4.54000
v -0.02400 2.02000 0.00000
vt 0.50000 4.54000
vn -0.86660 0.34664 -0.35896
f 463/463/155 464/464/155 465/465/155
v -0.01273 2.03500 -0.01273
vt 0.47454 4.57000
v -0.02400 2.02000 0.00000
vt 0.50000 4.54000
v -0.01800 2.03500 0.00000
vt 0.50000 4.57000
vn -0.86660 0.34664 -0.35896
f 466/466/156 467/467/156 468/468/156
v -0.01273 2.03500 -0.01273
vt 0.47454 4.57000
v 0.00000 2.02000 -0.02400
vt 0.45200 4.54000
v -0.01697 2.02000 -0.01697
vt 0.46606 4.54000
vn -0.35896 0.34664 -0.86660
f 469/469/157 470/470/157 471/471/157
v -0.01273 2.03500 -0.01273
vt 0.47454 4.57000
v 0.00000 2.03500 -0.01800
vt 0.46400 4.57000
v 0.00000 2.02000 -0.02400
vt 0.45200 4.54000
vn -0.35896 0.34664 -0.86660
f 472/472/158 473/473/158 474/474/158
v -0.01273 2.03500 0.01273
vt 0.52546 4.57000
v 0.01800 2.03500 0.00000
vt 0.50000 4.57000
v 0.01273 2.03500 -0.01273
vt 0.47454 4.57000
vn -0.00000 1.00000 0.00000
f 475/475/159 476/476/159 477/477/159
v -0.01273 2.03500 0.01273
vt 0.52546 4.57000
v -0.00000 2.03500 0.01800
vt 0.53600 4.57000
v 0.01273 2.03500 0.01273
vt 0.52546 4.57000
vn -0.00000 1.00000 0.00000
f 478/478/160 479/479/160 480/480/160
v -0.01273 2.03500 0.01273
vt 0.52546 4.57000
v 0.01273 2.03500 -0.01273
vt 0.47454 4.57000
v 0.00000 2.03500 -0.01800
vt 0.46400 4.57000
vn -0.00000 1.00000 0.00000
f 481/481/161 482/482/161 483/483/161
v -0.01273 2.03500 0.01273
vt 0.52546 4.57000
v 0.01273 2.03500 0.01273
vt 0.52546 4.57000
v 0.01800 2.03500 0.00000
vt 0.50000 4.57000
vn -0.00000 1.00000 0.00000
f 484/484/162 485/485/162 486/486/162
v -0.01273 2.03500 0.01273
vt 0.52546 4.57000
v -0.01273 2.03500 -0.01273
vt 0.47454 4.57000
v -0.01800 2.03500 0.00000
vt 0.50000 4.57000
vn -0.00000 1.00000 0.00000
f 487/487/163 488/488/163 489/489/163
v -0.01273 2.03500 0.01273
vt 0.52546 4.57000
v 0.00000 2.03500 -0.01800
vt 0.46400 4.57000
v -0.01273 2.03500 -0.01273
vt 0.47454 4.57000
vn -0.00000 1.00000 0.00000
f 490/490/164 491/491/164 492/492/164
v -0.01273 2.03500 0.01273
vt 0.52546 4.57000
v -0.02400 2.02000 0.00000
vt 0.50000 4.54000
v -0.01697 2.02000 0.01697
vt 0.53394 4.54000
vn -0.86660 0.34664 0.35896
f 493/493/165 494/494/165 495/495/165
v -0.01273 2.03500 0.01273
vt 0.52546 4.57000
v -0.01800 2.03500 0.00000
vt 0.50000 4.57000
v -0.02400 2.02000 0.00000
vt 0.50000 4.54000
vn -0.86660 0.34664 0.35896
f 496/496/166 497/497/166 498/498/166
v -0.01273 2.03500 0.01273
vt 0.52546 4.57000
v -0.01697 2.02000 0.01697
vt 0.53394 4.54000
v -0.00000 2.02000 0.02400
vt 0.54800 4.54000
vn -0.35896 0.34664 0.86660
f 499/499/167 500/500/167 501/501/167
v -0.01273 2.03500 0.01273
vt 0.52546 4.57000
v -0.00000 2.02000 0.02400
vt 0.54800 4.54000
v -0.00000 2.03500 0.01800
vt 0.53600 4.57000
vn -0.35896 0.34664 0.86660
f 502/502/168 503/503/168 504/504/168
o Steel
usemtl Steel
v 0.00000 2.06000 -0.00900
vt 0.48200 4.62000
v 0.00849 2.03500 -0.00849
vt 0.48303 4.57000
v 0.00000 2.03500 -0.01200
vt 0.47600 4.57000
vn 0.38035 0.11019 -0.91825
f 505/505/169 506/506/169 507/507/169
v 0.00000 2.06000 -0.00900
vt 0.48200 4.62000
v 0.00636 2.06000 -0.00636
vt 0.48727 4.62000
v 0.00849 2.03500 -0.00849
vt 0.48303 4.57000
vn 0.38035 0.11019 -0.91825
f 508/508/170 509/509/170 510/510/170
v 0.00849 2.03500 0.00849
vt 0.51697 4.57000
v -0.00849 2.03500 0.00849
vt 0.51697 4.57000
v -0.01200 2.03500 0.00000
vt 0.50000 4.57000
vn 0.00000 -1.00000 0.00000
f 511/511/171 512/512/171 513/513/171
v 0.00849 2.03500 0.00849
vt 0.51697 4.57000
v -0.01200 2.03500 0.00000
vt 0.50000 4.57000
v -0.00849 2.03500 -0.00849
vt 0.48303 4.57000
vn 0.00000 -1.00000 0.00000
f 514/514/172 515/515/172 516/516/172
v 0.00849 2.03500 0.00849
vt 0.51697 4.57000
v 0.00849 2.03500 -0.00849
vt 0.48303 4.57000
v 0.01200 2.03500 0.00000
vt 0.50000 4.57000
vn 0.00000 -1.00000 0.00000
f 517/517/173 518/518/173 519/519/173
v 0.00849 2.03500 0.00849
vt 0.51697 4.57000
v -0.00849 2.03500 -0.00849
vt 0.48303 4.57000
v 0.00000 2.03500 -0.01200
vt 0.47600 4.57000
vn 0.00000 -1.00000 0.00000
f 520/520/174 521/521/174 522/522/174
v 0.00849 2.03500 0.00849
vt 0.51697 4.57000
v 0.00000 2.03500 -0.01200
vt 0.47600 4.57000
v 0.00849 2.03500 -0.00849
vt 0.48303 4.57000
vn 0.00000 -1.00000 0.00000
f 523/523/175 524/524/175 525/525/175
v 0.00849 2.03500 0.00849
vt 0.51697 4.57000
v -0.00000 2.03500 0.01200
vt 0.52400 4.57000
v -0.00849 2.03500 0.00849
vt 0.51697 4.57000
vn 0.00000 -1.00000 0.00000
f 526/526/176 527/527/176 528/528/176
v 0.00900 2.06000 0.00000
vt 0.50000 4.62000
v 0.01200 2.03500 0.00000
vt 0.50000 4.57000
v 0.00849 2.03500 -0.00849
vt 0.48303 4.57000
vn 0.91825 0.11019 -0.38035
f 529/529/177 530/530/177 531/531/177
v 0.00900 2.06000 0.00000
vt 0.50000 4.62000
v 0.00849 2.03500 -0.00849
vt 0.48303 4.57000
v 0.00636 2.06000 -0.00636
vt 0.48727 4.62000
vn 0.91825 0.11019 -0.38035
f 532/532/178 533/533/178 534/534/178
v 0.00900 2.06000 0.00000
vt 0.50000 4.62000
v 0.00849 2.03500 0.00849
vt 0.51697 4.57000
v 0.01200 2.03500 0.00000
vt 0.50000 4.57000
vn 0.91825 0.11019 0.38035
f 535/535/179 536/536/179 537/537/179
v 0.00900 2.06000 0.00000
vt 0.50000 4.62000
v 0.00636 2.06000 0.00636
vt 0.51273 4.62000
v 0.00849 2.03500 0.00849
vt 0.51697 4.57000
vn 0.91825 0.11019 0.38035
f 538/538/180 539/539/180 540/540/180
v -0.00000 2.06000 0.00900
vt 0.51800 4.62000
v 0.00849 2.03500 0.00849
vt 0.51697 4.57000
v 0.00636 2.06000 0.00636
vt 0.51273 4.62000
vn 0.38035 0.11019 0.91825
f 541/541/181 542/542/181 543/543/181
v -0.00000 2.06000 0.00900
vt 0.51800 4.62000
v -0.00000 2.03500 0.01200
vt 0.52400 4.57000
v 0.00849 2.03500 0.00849
vt 0.51697 4.57000
vn 0.38035 0.11019 0.91825
f 544/544/182 545/545/182 546/546/182
v -0.00636 2.06000 -0.00636
vt 0.48727 4.62000
v -0.00849 2.03500 -0.00849
vt 0.48303 4.57000
v -0.01200 2.03500 0.00000
vt 0.50000 4.57000
vn -0.91825 0.11019 -0.38035
f 547/547/183 548/548/183 549/549/183
v -0.00636 2.06000 -0.00636
vt 0.48727 4.62000
v -0.01200 2.03500 0.00000
vt 0.50000 4.57000
v -0.00900 2.06000 0.00000
vt 0.50000 4.62000
vn -0.91825 0.11019 -0.38035
f 550/550/184 551/551/184 552/552/184
v -0.00636 2.06000 -0.00636
vt 0.48727 4.62000
v 0.00000 2.03500 -0.01200
vt 0.47600 4.57000
v -0.00849 2.03500 -0.00849
vt 0.48303 4.57000
vn -0.38035 0.11019 -0.91825
f 553/553/185 554/554/185 555/555/185
v -0.00636 2.06000 -0.00636
vt 0.48727 4.62000
v 0.00000 2.06000 -0.00900
vt 0.48200 4.62000
v 0.00000 2.03500 -0.01200
vt 0.47600 4.57000
vn -0.38035 0.11019 -0.91825
f 556/556/186 557/557/186 558/558/186
v -0.00636 2.06000 0.00636
vt 0.51273 4.62000
v 0.00900 2.06000 0.00000
vt 0.50000 4.62000
v 0.00636 2.06000 -0.00636
vt 0.48727 4.62000
vn -0.00000 1.00000 0.00000
f 559/559/187 560/560/187 561/561/187
v -0.00636 2.06000 0.00636
vt 0.51273 4.62000
v -0.00000 2.06000 0.00900
vt 0.51800 4.62000
v 0.00636 2.06000 0.00636
vt 0.51273 4.62000
vn -0.00000 1.00000 0.00000
f 562/562/188 563/563/188 564/564/188
v -0.00636 2.06000 0.00636
vt 0.51273 4.62000
v 0.00636 2.06000 -0.00636
vt 0.48727 4.62000
v 0.00000 2.06000 -0.00900
vt 0.48200 4.62000
vn -0.00000 1.00000 0.00000
f 565/565/189 566/566/189 567/567/189
v -0.00636 2.06000 0.00636
vt 0.51273 4.62000
v 0.00636 2.06000 0.00636
vt 0.51273 4.62000
v 0.00900 2.06000 0.00000
vt 0.50000 4.62000
vn -0.00000 1.00000 0.00000
f 568/568/190 569/569/190 570/570/190
v -0.00636 2.06000 0.00636
vt 0.51273 4.62000
v -0.00636 2.06000 -0.00636
vt 0.48727 4.62000
v -0.00900 2.06000 0.00000
vt 0.50000 4.62000
vn -0.00000 1.00000 0.00000
f 571/571/191 572/572/191 573/573/191
v -0.00636 2.06000 0.00636
vt 0.51273 4.62000
v 0.00000 2.06000 -0.00900
vt 0.48200 4.62000
v -0.00636 2.06000 -0.00636
vt 0.48727 4.62000
vn -0.00000 1.00000 0.00000
f 574/574/192 575/575/192 576/576/192
v -0.00636 2.06000 0.00636
vt 0.51273 4.62000
v -0.01200 2.03500 0.00000
vt 0.50000 4.57000
v -0.00849 2.03500 0.00849
vt 0.51697 4.57000
vn -0.91825 0.11019 0.38035
f 577/577/193 578/578/193 579/579/193
v -0.00636 2.06000 0.00636
vt 0.51273 4.62000
v -0.00900 2.06000 0.00000
vt 0.50000 4.62000
v -0.01200 2.03500 0.00000
vt 0.50000 4.57000
vn -0.91825 0.11019 0.38035
f 580/580/194 581/581/194 582/582/194
v -0.00636 2.06000 0.00636
vt 0.51273 4.62000
v -0.00849 2.03500 0.00849
vt 0.51697 4.57000
v -0.00000 2.03500 0.01200
vt 0.52400 4.57000
vn -0.38035 0.11019 0.91825
f 583/583/195 584/584/195 585/585/195
v -0.00636 2.06000 0.00636
vt 0.51273 4.62000
v -0.00000 2.03500 0.01200
vt 0.52400 4.57000
v -0.00000 2.06000 0.00900
vt 0.51800 4.62000
vn -0.38035 0.11019 0.91825
f 586/586/196 587/587/196 588/588/196
v -0.00000 2.05000 -0.00600
vt 0.48800 4.60000
v 0.03000 2.10000 -0.00080
vt 0.49840 4.70000
v 0.00800 2.05000 -0.00080
vt 0.49840 4.60000
vn 0.52996 -0.23318 -0.81533
f 589/589/197 590/590/197 591/591/197
v -0.00000 2.05000 -0.00600
vt 0.48800 4.60000
v -0.00800 2.05000 -0.00080
vt 0.49840 4.60000
v -0.03000 2.10000 -0.00080
vt 0.49840 4.70000
vn -0.52996 -0.23318 -0.81533
f 592/592/198 593/593/198 594/594/198
v 0.03000 2.10000 0.00080
vt 0.50160 4.70000
v -0.00000 2.10000 0.00600
vt 0.51200 4.70000
v -0.00000 2.05000 0.00600
vt 0.51200 4.60000
vn 0.17079 0.00000 0.98531
f 595/595/199 596/596/199 597/597/199
v 0.03000 2.10000 0.00080
vt 0.50160 4.70000
v -0.00000 2.05000 0.00600
vt 0.51200 4.60000
v 0.00800 2.05000 0.00080
vt 0.50160 4.60000
vn 0.52996 -0.23318 0.81533
f 598/598/200 599/599/200 600/600/200
v -0.03000 2.10000 0.00080
vt 0.50160 4.70000
v -0.00000 2.05000 0.00600
vt 0.51200 4.60000
v -0.00000 2.10000 0.00600
vt 0.51200 4.70000
vn -0.17079 -0.00000 0.98531
f 601/601/201 602/602/201 603/603/201
v -0.03000 2.10000 0.00080
vt 0.50160 4.70000
v -0.00800 2.05000 0.00080
vt 0.50160 4.60000
v -0.00000 2.05000 0.00600
vt 0.51200 4.60000
vn -0.52996 -0.23318 0.81533
f 604/604/202 605/605/202 606/606/202
v -0.00000 2.10000 -0.00600
vt 0.48800 4.70000
v 0.03000 2.10000 -0.00080
vt 0.49840 4.70000
v -0.00000 2.05000 -0.00600
vt 0.48800 4.60000
vn 0.17079 -0.00000 -0.98531
f 607/607/203 608/608/203 609/609/203
v -0.00000 2.10000 -0.00600
vt 0.48800 4.70000
v -0.00000 2.05000 -0.00600
vt 0.48800 4.60000
v -0.03000 2.10000 -0.00080
vt 0.49840 4.70000
vn -0.17079 0.00000 -0.98531
f 610/610/204 611/611/204 612/612/204
v -0.00000 2.05000 -0.00600
vt 0.48800 4.60000
v -0.00000 2.05000 0.00600
vt 0.51200 4.60000
v -0.00800 2.05000 0.00080
vt 0.50160 4.60000
vn 0.00000 -1.00000 -0.00000
f 613/613/205 614/614/205 615/615/205
v -0.00000 2.05000 -0.00600
vt 0.48800 4.60000
v 0.00800 2.05000 -0.00080
vt 0.49840 4.60000
v 0.00800 2.05000 0.00080
vt 0.50160 4.60000
vn 0.00000 -1.00000 -0.00000
f 616/616/206 617/617/206 618/618/206
v -0.00000 2.05000 -0.00600
vt 0.48800 4.60000
v 0.00800 2.05000 0.00080
vt 0.50160 4.60000
v -0.00000 2.05000 0.00600
vt 0.51200 4.60000
vn 0.00000 -1.00000 -0.00000
f 619/619/207 620/620/207 621/621/207
v -0.00000 2.05000 -0.00600
vt 0.48800 4.60000
v -0.00800 2.05000 0.00080
vt 0.50160 4.60000
v -0.00800 2.05000 -0.00080
vt 0.49840 4.60000
vn 0.00000 -1.00000 -0.00000
f 622/622/208 623/623/208 624/624/208
v 0.03000 2.10000 0.00080
vt 0.50160 4.70000
v 0.00800 2.05000 0.00080
vt 0.50160 4.60000
v 0.00800 2.05000 -0.00080
vt 0.49840 4.60000
vn 0.91532 -0.40274 -0.00000
f 625/625/209 626/626/209 627/627/209
v 0.03000 2.10000 0.00080
vt 0.50160 4.70000
v 0.00800 2.05000 -0.00080
vt 0.49840 4.60000
v 0.03000 2.10000 -0.00080
vt 0.49840 4.70000
vn 0.91532 -0.40274 -0.00000
f 628/628/210 629/629/210 630/630/210
v -0.03000 2.10000 0.00080
vt 0.50160 4.70000
v -0.00800 2.05000 -0.00080
vt 0.49840 4.60000
v -0.00800 2.05000 0.00080
vt 0.50160 4.60000
vn -0.91532 -0.40274 -0.00000
f 631/631/211 632/632/211 633/633/211
v -0.03000 2.10000 0.00080
vt 0.50160 4.70000
v -0.03000 2.10000 -0.00080
vt 0.49840 4.70000
v -0.00800 2.05000 -0.00080
vt 0.49840 4.60000
vn -0.91532 -0.40274 -0.00000
f 634/634/212 635/635/212 636/636/212
v -0.00000 2.10000 -0.00600
vt 0.48800 4.70000
v 0.03000 2.10000 0.00080
vt 0.50160 4.70000
v 0.03000 2.10000 -0.00080
vt 0.49840 4.70000
vn 0.00000 1.00000 0.00000
f 637/637/213 638/638/213 639/639/213
v -0.00000 2.10000 -0.00600
vt 0.48800 4.70000
v -0.03000 2.10000 -0.00080
vt 0.49840 4.70000
v -0.03000 2.10000 0.00080
vt 0.50160 4.70000
vn 0.00000 1.00000 0.00000
f 640/640/214 641/641/214 642/642/214
v -0.00000 2.10000 -0.00600
vt 0.48800 4.70000
v -0.00000 2.10000 0.00600
vt 0.51200 4.70000
v 0.03000 2.10000 0.00080
vt 0.50160 4.70000
vn 0.00000 1.00000 0.00000
f 643/643/215 644/644/215 645/645/215
v -0.00000 2.10000 -0.00600
vt 0.48800 4.70000
v -0.03000 2.10000 0.00080
vt 0.50160 4.70000
v -0.00000 2.10000 0.00600
vt 0.51200 4.70000
vn 0.00000 1.00000 0.00000
f 646/646/216 647/647/216 648/648/216
v -0.00000 2.10000 -0.00600
vt 0.48800 4.70000
v -0.00000 2.26000 0.00000
vt 0.50000 5.02000
v 0.03000 2.10000 -0.00080
vt 0.49840 4.70000
vn 0.17067 0.03692 -0.98464
f 649/649/217 650/650/217 651/651/217
v -0.00000 2.10000 -0.00600
vt 0.48800 4.70000
v -0.03000 2.10000 -0.00080
vt 0.49840 4.70000
v -0.00000 2.26000 0.00000
vt 0.50000 5.02000
vn -0.17067 0.03692 -0.98464
f 652/652/218 653/653/218 654/654/218
v 0.03000 2.10000 0.00080
vt 0.50160 4.70000
v 0.03000 2.10000 -0.00080
vt 0.49840 4.70000
v -0.00000 2.26000 0.00000
vt 0.50000 5.02000
vn 0.98287 0.18429 -0.00000
f 655/655/219 656/656/219 657/657/219
v 0.03000 2.10000 0.00080
vt 0.50160 4.70000
v -0.00000 2.26000 0.00000
vt 0.50000 5.02000
v -0.00000 2.10000 0.00600
vt 0.51200 4.70000
vn 0.17067 0.03692 0.98464
f 658/658/220 659/659/220 660/660/220
v -0.03000 2.10000 0.00080
vt 0.50160 4.70000
v -0.00000 2.26000 0.00000
vt 0.50000 5.02000
v -0.03000 2.10000 -0.00080
vt 0.49840 4.70000
vn -0.98287 0.18429 0.00000
f 661/661/221 662/662/221 663/663/221
v -0.03000 2.10000 0.00080
vt 0.50160 4.70000
v -0.00000 2.10000 0.00600
vt 0.51200 4.70000
v -0.00000 2.26000 0.00000
vt 0.50000 5.02000
vn -0.17067 0.03692 0.98464
f 664/664/222 665/665/222 666/666/222
v -0.03000 2.10000 0.00080
vt 0.50160 4.70000
v 0.03000 2.10000 -0.00080
vt 0.49840 4.70000
v 0.03000 2.10000 0.00080
vt 0.50160 4.70000
vn -0.00000 -1.00000 -0.00000
f 667/667/223 668/668/223 669/669/223
v -0.03000 2.10000 0.00080
vt 0.50160 4.70000
v -0.00000 2.10000 -0.00600
vt 0.48800 4.70000
v 0.03000 2.10000 -0.00080
vt 0.49840 4.70000
vn -0.00000 -1.00000 -0.00000
f 670/670/224 671/671/224 672/672/224
v -0.03000 2.10000 0.00080
vt 0.50160 4.70000
v -0.03000 2.10000 -0.00080
vt 0.49840 4.70000
v -0.00000 2.10000 -0.00600
vt 0.48800 4.70000
vn -0.00000 -1.00000 -0.00000
f 673/673/225 674/674/225 675/675/225
v -0.03000 2.10000 0.00080
vt 0.50160 4.70000
v 0.03000 2.10000 0.00080
vt 0.50160 4.70000
v -0.00000 2.10000 0.00600
vt 0.51200 4.70000
vn -0.00000 -1.00000 -0.00000
f 676/676/226 677/677/226 678/678/226
