# Generated for the VR Showcase
mtllib SteelPlate.mtl
o Steel
usemtl Steel
v 0.00600 0.49600 0.50000
vt 1.50000 1.49200
v 0.01000 0.49600 0.49600
vt 1.49200 1.49200
v 0.00600 0.50000 0.49600
vt 1.49200 1.50000
vn 0.57735 0.57735 0.57735
f 1/1/1 2/2/1 3/3/1
v 0.00600 -0.50000 -0.49600
vt -0.49200 -0.50000
v 0.00600 -0.49600 -0.50000
vt -0.50000 -0.49200
v 0.01000 -0.49600 -0.49600
vt -0.49200 -0.49200
vn 0.57735 -0.57735 -0.57735
f 4/4/2 5/5/2 6/6/2
v -0.00600 0.49600 -0.50000
vt -0.50000 1.49200
v -0.01000 0.49600 -0.49600
vt -0.49200 1.49200
v -0.00600 0.50000 -0.49600
vt -0.49200 1.50000
vn -0.57735 0.57735 -0.57735
f 7/7/3 8/8/3 9/9/3
v -0.00600 -0.50000 -0.49600
vt -0.49200 -0.50000
v -0.01000 -0.49600 -0.49600
vt -0.49200 -0.49200
v -0.00600 -0.49600 -0.50000
vt -0.50000 -0.49200
vn -0.57735 -0.57735 -0.57735
f 10/10/4 11/11/4 12/12/4
v -0.00600 0.50000 0.49600
vt 1.49200 1.50000
v -0.01000 0.49600 0.49600
vt 1.49200 1.49200
v -0.00600 0.49600 0.50000
vt 1.50000 1.49200
vn -0.57735 0.57735 0.57735
f 13/13/5 14/14/5 15/15/5
v 0.00600 0.49600 -0.50000
vt -0.50000 1.49200
v 0.00600 0.50000 -0.49600
vt -0.49200 1.50000
v 0.01000 0.49600 -0.49600
vt -0.49200 1.49200
vn 0.57735 0.57735 -0.57735
f 16/16/6 17/17/6 18/18/6
v 0.00600 -0.50000 0.49600
vt 1.49200 -0.50000
v 0.01000 -0.49600 0.49600
vt 1.49200 -0.49200
v 0.00600 -0.49600 0.50000
vt 1.50000 -0.49200
vn 0.57735 -0.57735 0.57735
f 19/19/7 20/20/7 21/21/7
v -0.00600 -0.50000 0.49600
vt 1.49200 -0.50000
v -0.00600 -0.49600 0.50000
vt 1.50000 -0.49200
v -0.01000 -0.49600 0.49600
vt 1.49200 -0.49200
vn -0.57735 -0.57735 0.57735
f 22/22/8 23/23/8 24/24/8
v -0.01000 -0.49600 0.49600
vt 1.49200 -0.49200
v -0.01000 0.49600 -0.49600
vt -0.49200 1.49200
v -0.01000 -0.49600 -0.49600
vt -0.49200 -0.49200
vn -1.00000 -0.00000 -0.00000
f 25/25/9 26/26/9 27/27/9
v -0.01000 -0.49600 0.49600
vt 1.49200 -0.49200
v -0.01000 0.49600 0.49600
vt 1.49200 1.49200
v -0.01000 0.49600 -0.49600
vt -0.49200 1.49200
vn -1.00000 -0.00000 -0.00000
f 28/28/10 29/29/10 30/30/10
v 0.01000 0.49600 -0.49600
vt -0.49200 1.49200
v 0.01000 -0.49600 0.49600
vt 1.49200 -0.49200
v 0.01000 -0.49600 -0.49600
vt -0.49200 -0.49200
vn 1.00000 0.00000 -0.00000
f 31/31/11 32/32/11 33/33/11
v 0.01000 0.49600 -0.49600
vt -0.49200 1.49200
v 0.01000 0.49600 0.49600
vt 1.49200 1.49200
v 0.01000 -0.49600 0.49600
vt 1.49200 -0.49200
vn 1.00000 0.00000 -0.00000
f 34/34/12 35/35/12 36/36/12
v 0.00600 0.50000 0.49600
vt 1.49200 1.50000
v 0.01000 0.49600 0.49600
vt 1.49200 1.49200
v 0.01000 0.49600 -0.49600
vt -0.49200 1.49200
vn 0.70711 0.70711 -0.00000
f 37/37/13 38/38/13 39/39/13
v 0.00600 0.50000 0.49600
vt 1.49200 1.50000
v 0.01000 0.49600 -0.49600
vt -0.49200 1.49200
v 0.00600 0.50000 -0.49600
vt -0.49200 1.50000
vn 0.70711 0.70711 -0.00000
f 40/40/14 41/41/14 42/42/14
v 0.00600 0.49600 0.50000
vt 1.50000 1.49200
v 0.00600 -0.49600 0.50000
vt 1.50000 -0.49200
v 0.01000 -0.49600 0.49600
vt 1.49200 -0.49200
vn 0.70711 0.00000 0.70711
f 43/43/15 44/44/15 45/45/15
v 0.00600 0.49600 0.50000
vt 1.50000 1.49200
v 0.01000 -0.49600 0.49600
vt 1.49200 -0.49200
v 0.01000 0.49600 0.49600
vt 1.49200 1.49200
vn 0.70711 0.00000 0.70711
f 46/46/16 47/47/16 48/48/16
v -0.00600 0.49600 0.50000
vt 1.50000 1.49200
v -0.01000 0.49600 0.49600
vt 1.49200 1.49200
v -0.01000 -0.49600 0.49600
vt 1.49200 -0.49200
vn -0.70711 -0.00000 0.70711
f 49/49/17 50/50/17 51/51/17
v -0.00600 0.49600 0.50000
vt 1.50000 1.49200
v -0.01000 -0.49600 0.49600
vt 1.49200 -0.49200
v -0.00600 -0.49600 0.50000
vt 1.50000 -0.49200
vn -0.70711 -0.00000 0.70711
f 52/52/18 53/53/18 54/54/18
v -0.00600 0.49600 0.50000
vt 1.50000 1.49200
v 0.00600 -0.49600 0.50000
vt 1.50000 -0.49200
v 0.00600 0.49600 0.50000
vt 1.50000 1.49200
vn -0.00000 0.00000 1.00000
f 55/55/19 56/56/19 57/57/19
v -0.00600 0.49600 0.50000
vt 1.50000 1.49200
v -0.00600 -0.49600 0.50000
vt 1.50000 -0.49200
v 0.00600 -0.49600 0.50000
vt 1.50000 -0.49200
vn -0.00000 0.00000 1.00000
f 58/58/20 59/59/20 60/60/20
v -0.00600 0.49600 -0.50000
vt -0.50000 1.49200
v -0.01000 -0.49600 -0.49600
vt -0.49200 -0.49200
v -0.01000 0.49600 -0.49600
vt -0.49200 1.49200
vn -0.70711 -0.00000 -0.70711
f 61/61/21 62/62/21 63/63/21
v -0.00600 0.49600 -0.50000
vt -0.50000 1.49200
v -0.00600 -0.49600 -0.50000
vt -0.50000 -0.49200
v -0.01000 -0.49600 -0.49600
vt -0.49200 -0.49200
vn -0.70711 -0.00000 -0.70711
f 64/64/22 65/65/22 66/66/22
v -0.00600 -0.50000 -0.49600
vt -0.49200 -0.50000
v -0.00600 -0.49600 -0.50000
vt -0.50000 -0.49200
v 0.00600 -0.49600 -0.50000
vt -0.50000 -0.49200
vn -0.00000 -0.70711 -0.70711
f 67/67/23 68/68/23 69/69/23
v -0.00600 -0.50000 -0.49600
vt -0.49200 -0.50000
v 0.00600 -0.49600 -0.50000
vt -0.50000 -0.49200
v 0.00600 -0.50000 -0.49600
vt -0.49200 -0.50000
vn -0.00000 -0.70711 -0.70711
f 70/70/24 71/71/24 72/72/24
v -0.00600 0.50000 0.49600
vt 1.49200 1.50000
v -0.00600 0.49600 0.50000
vt 1.50000 1.49200
v 0.00600 0.49600 0.50000
vt 1.50000 1.49200
vn -0.00000 0.70711 0.70711
f 73/73/25 74/74/25 75/75/25
v -0.00600 0.50000 0.49600
vt 1.49200 1.50000
v 0.00600 0.49600 0.50000
vt 1.50000 1.49200
v 0.00600 0.50000 0.49600
vt 1.49200 1.50000
vn -0.00000 0.70711 0.70711
f 76/76/26 77/77/26 78/78/26
v -0.00600 0.50000 0.49600
vt 1.49200 1.50000
v -0.01000 0.49600 -0.49600
vt -0.49200 1.49200
v -0.01000 0.49600 0.49600
vt 1.49200 1.49200
vn -0.70711 0.70711 0.00000
f 79/79/27 80/80/27 81/81/27
v -0.00600 0.50000 0.49600
vt 1.49200 1.50000
v -0.00600 0.50000 -0.49600
vt -0.49200 1.50000
v -0.01000 0.49600 -0.49600
vt -0.49200 1.49200
vn -0.70711 0.70711 0.00000
f 82/82/28 83/83/28 84/84/28
v -0.00600 0.50000 0.49600
vt 1.49200 1.50000
v 0.00600 0.50000 0.49600
vt 1.49200 1.50000
v 0.00600 0.50000 -0.49600
vt -0.49200 1.50000
vn -0.00000 1.00000 0.00000
f 85/85/29 86/86/29 87/87/29
v -0.00600 0.50000 0.49600
vt 1.49200 1.50000
v 0.00600 0.50000 -0.49600
vt -0.49200 1.50000
v -0.00600 0.50000 -0.49600
vt -0.49200 1.50000
vn -0.00000 1.00000 0.00000
f 88/88/30 89/89/30 90/90/30
v 0.00600 0.49600 -0.50000
vt -0.50000 1.49200
v -0.00600 0.50000 -0.49600
vt -0.49200 1.50000
v 0.00600 0.50000 -0.49600
vt -0.49200 1.50000
vn -0.00000 0.70711 -0.70711
f 91/91/31 92/92/31 93/93/31
v 0.00600 0.49600 -0.50000
vt -0.50000 1.49200
v -0.00600 0.49600 -0.50000
vt -0.50000 1.49200
v -0.00600 0.50000 -0.49600
vt -0.49200 1.50000
vn -0.00000 0.70711 -0.70711
f 94/94/32 95/95/32 96/96/32
v 0.00600 0.49600 -0.50000
vt -0.50000 1.49200
v 0.01000 0.49600 -0.49600
vt -0.49200 1.49200
v 0.01000 -0.49600 -0.49600
vt -0.49200 -0.49200
vn 0.70711 -0.00000 -0.70711
f 97/97/33 98/98/33 99/99/33
v 0.00600 0.49600 -0.50000
vt -0.50000 1.49200
v 0.01000 -0.49600 -0.49600
vt -0.49200 -0.49200
v 0.00600 -0.49600 -0.50000
vt -0.50000 -0.49200
vn 0.70711 -0.00000 -0.70711
f 100/100/34 101/101/34 102/102/34
v 0.00600 0.49600 -0.50000
vt -0.50000 1.49200
v -0.00600 -0.49600 -0.50000
vt -0.50000 -0.49200
v -0.00600 0.49600 -0.50000
vt -0.50000 1.49200
vn 0.00000 -0.00000 -1.00000
f 103/103/35 104/104/35 105/105/35
v 0.00600 0.49600 -0.50000
vt -0.50000 1.49200
v 0.00600 -0.49600 -0.50000
vt -0.50000 -0.49200
v -0.00600 -0.49600 -0.50000
vt -0.50000 -0.49200
vn 0.00000 -0.00000 -1.00000
f 106/106/36 107/107/36 108/108/36
v 0.00600 -0.50000 0.49600
vt 1.49200 -0.50000
v 0.01000 -0.49600 -0.49600
vt -0.49200 -0.49200
v 0.01000 -0.49600 0.49600
vt 1.49200 -0.49200
vn 0.70711 -0.70711 -0.00000
f 109/109/37 110/110/37 111/111/37
v 0.00600 -0.50000 0.49600
vt 1.49200 -0.50000
v 0.00600 -0.50000 -0.49600
vt -0.49200 -0.50000
v 0.01000 -0.49600 -0.49600
vt -0.49200 -0.49200
vn 0.70711 -0.70711 -0.00000
f 112/112/38 113/113/38 114/114/38
v -0.00600 -0.50000 0.49600
vt 1.49200 -0.50000
v 0.00600 -0.49600 0.50000
vt 1.50000 -0.49200
v -0.00600 -0.49600 0.50000
vt 1.50000 -0.49200
vn 0.00000 -0.70711 0.70711
f 115/115/39 116/116/39 117/117/39
v -0.00600 -0.50000 0.49600
vt 1.49200 -0.50000
v 0.00600 -0.50000 0.49600
vt 1.49200 -0.50000
v 0.00600 -0.49600 0.50000
vt 1.50000 -0.49200
vn 0.00000 -0.70711 0.70711
f 118/118/40 119/119/40 120/120/40
v -0.00600 -0.50000 0.49600
vt 1.49200 -0.50000
v -0.01000 -0.49600 0.49600
vt 1.49200 -0.49200
v -0.01000 -0.49600 -0.49600
vt -0.49200 -0.49200
vn -0.70711 -0.70711 0.00000
f 121/121/41 122/122/41 123/123/41
v -0.00600 -0.50000 0.49600
vt 1.49200 -0.50000
v -0.01000 -0.49600 -0.49600
vt -0.49200 -0.49200
v -0.00600 -0.50000 -0.49600
vt -0.49200 -0.50000
vn -0.70711 -0.70711 0.00000
f 124/124/42 125/125/42 126/126/42
v -0.00600 -0.50000 0.49600
vt 1.49200 -0.50000
v -0.00600 -0.50000 -0.49600
vt -0.49200 -0.50000
v 0.00600 -0.50000 -0.49600
vt -0.49200 -0.50000
vn -0.00000 -1.00000 0.00000
f 127/127/43 128/128/43 129/129/43
v -0.00600 -0.50000 0.49600
vt 1.49200 -0.50000
v 0.00600 -0.50000 -0.49600
vt -0.49200 -0.50000
v 0.00600 -0.50000 0.49600
vt 1.49200 -0.50000
vn -0.00000 -1.00000 0.00000
f 130/130/44 131/131/44 132/132/44
